<svg width="24" height="24" viewBox="0 0 193 94" fill="none" xmlns="http://www.w3.org/2000/svg">
<path d="M152.751 5.50188L151.999 6.82102C144.087 20.6939 146.688 38.2472 158.275 49.1699L159.596 50.4154L161.357 50.0042C176.796 46.3984 187.735 32.5111 187.749 16.4997L187.75 14.9773C184.508 12.9424 180.8 12.0779 177.173 12.3446C176.507 10.9643 175.649 9.43107 174.789 8.11214C180.112 7.20859 185.723 8.28018 190.484 11.4084L191.187 11.8701C191.819 12.2851 192.2 12.9948 192.199 13.7559L192.197 16.5035C192.182 34.6056 179.814 50.3064 162.358 54.3831L159.445 55.0635C158.724 55.2318 157.968 55.0271 157.427 54.5171L155.241 52.4561C142.141 40.107 139.2 20.2615 148.145 4.57709L149.502 2.19651C149.879 1.53702 150.56 1.11473 151.312 1.07445L152.149 1.02963C161.835 0.511057 171.08 6.84985 174.205 16.0907L174.376 16.5974C174.917 18.1969 174.74 19.9553 173.892 21.4123C170.488 27.2621 161.621 24.8615 161.568 18.0756C161.554 16.3854 162.271 14.7733 163.531 13.6613L163.93 13.3091C164.377 12.9149 164.563 12.7497 165.033 12.3974C165.908 13.1387 167.275 15.3486 167.629 16.0478C167.272 16.3173 167.197 16.394 166.857 16.6939L166.458 17.0462C166.174 17.2965 166.013 17.6593 166.016 18.0398C166.033 20.2655 168.941 21.0529 170.058 19.1342C170.249 18.8062 170.289 18.4105 170.167 18.0504L169.996 17.5437C167.517 10.2131 160.485 5.24944 152.751 5.50188Z" fill="#6AA086"/>
<path d="M17.375 40.3136C15.8364 40.3136 15.3861 40.7609 15.3861 41.5064C15.3861 42.4756 16.0616 42.8483 18.4258 42.8483C20.4147 42.8483 21.2028 43.2584 21.2028 44.7121V46.9486C21.2028 50.6015 19.2138 52.4653 15.311 52.4653C9.1566 52.4653 6.00433 46.6877 6.00433 41.0591C6.00433 35.4679 9.23165 29.0566 15.6112 29.0566C19.439 29.0566 21.7282 30.6221 23.1542 33.9023C23.3793 34.4242 23.6796 35.0206 24.355 35.0206C25.1431 35.0206 25.4809 34.6105 25.4809 33.7905V30.6967C25.4809 27.8638 18.7635 26.5219 15.3486 26.5219C7.3553 26.5219 0 32.2622 0 41.0591C0 49.7815 6.86745 55 14.8982 55C21.4655 55 26.8694 51.7571 26.8694 50.4897C26.8694 49.8188 26.3815 48.1414 26.3815 46.1285C26.3815 45.7558 26.7943 41.6928 26.7943 41.4692C26.7943 40.4627 25.8561 40.3136 24.4676 40.3136H17.375Z" fill="#FFFFFF"/>
<path d="M29.0902 45.9422C29.1278 51.2725 33.4809 54.7764 38.6596 54.7764C43.2004 54.7764 47.3284 51.7943 47.3284 49.9306C47.3284 49.446 47.0657 49.0733 46.4653 49.0733C45.7898 49.0733 45.5271 49.446 45.0768 49.856C43.5006 51.2725 42.0371 51.9807 39.823 52.0925C37.2336 52.0925 35.0195 50.3406 34.5692 47.545C38.472 47.3213 46.9907 46.4267 47.0282 41.3946C47.0657 37.6671 42.9377 36.2134 39.7855 36.2134C32.7679 36.2134 29.1278 40.1645 29.0902 45.9422ZM39.4477 38.2262C41.1364 38.2262 42.1497 39.1954 42.1497 40.8728C42.1497 44.6003 36.2204 45.3458 34.269 45.5321C34.1939 41.8046 35.8451 38.2262 39.4477 38.2262Z" fill="#FFFFFF"/>
<path d="M62.8748 50.6761C62.8748 53.1362 61.1111 51.9807 61.1111 53.3972C61.1111 54.0309 61.5239 54.4036 62.4996 54.4036H68.1286C69.1043 54.4036 69.5171 54.0309 69.5171 53.3972C69.5171 51.9807 67.7534 53.1362 67.7534 50.6761V43.5193C67.7534 38.5244 65.6143 36.2134 60.961 36.2134C58.4467 36.2134 56.4202 37.2943 54.769 39.1954C54.694 36.9589 54.5438 36.2134 53.418 36.2134C52.6675 36.2134 48.5395 36.9589 48.5395 38.3753C48.5395 40.09 50.5285 38.6735 50.5285 41.581V50.6761C50.5285 53.1362 48.7647 51.9807 48.7647 53.3972C48.7647 54.0309 49.1775 54.4036 50.1532 54.4036H55.7822C56.7579 54.4036 57.1707 54.0309 57.1707 53.3972C57.1707 51.9807 55.407 53.1362 55.407 50.6761V42.9974C55.407 41.0591 56.833 38.9717 59.3098 38.9717C62.6497 38.9717 62.8748 41.1337 62.8748 43.8175V50.6761Z" fill="#FFFFFF"/>
<path d="M71.0123 42.1774C71.0123 48.8123 80.957 45.8676 80.957 49.8933C80.957 51.4216 79.4559 52.5399 77.5045 52.5399C73.7143 52.5399 73.7518 48.8869 71.8755 48.8869C70.8998 48.8869 70.3744 49.9306 70.3744 50.7879C70.3744 52.018 73.3765 54.7764 77.6171 54.7764C82.5331 54.7764 85.8355 52.3162 85.8355 48.365C85.8355 42.1028 75.7408 44.4139 75.7408 40.91C75.7408 39.9409 76.3036 38.4499 78.7429 38.4499C82.5331 38.4499 82.4956 41.4692 84.1468 41.4692C84.7848 41.4692 84.9724 41.2828 84.9724 38.9344C84.9724 37.7789 82.7583 36.2134 78.7429 36.2134C75.1028 36.2134 71.0123 38.0026 71.0123 42.1774Z" fill="#FFFFFF"/>
<path d="M113.284 54.4036C114.786 54.4036 115.086 54.0681 115.086 53.2481C115.086 52.3907 113.284 52.6517 113.284 50.7879V27.3419C113.284 26.2236 112.984 26 111.934 26C110.883 26 107.806 26.8946 107.205 27.1183C106.792 27.2674 106.304 27.6401 106.304 28.162C106.304 29.4293 108.406 29.0193 108.406 30.8458V37.7044C106.905 36.6979 105.667 36.2134 103.865 36.2134C98.3487 36.2134 94.6711 40.6118 94.6711 45.9049C94.6711 50.6015 96.9978 54.7764 102.702 54.7764C105.479 54.7764 107.243 53.9936 108.744 52.2044C108.856 53.5835 108.781 54.4036 110.507 54.4036H113.284ZM108.406 48.7378C108.406 50.6015 106.492 52.2416 104.466 52.2416C101.876 52.2416 99.8498 50.1542 99.8498 45.4203C99.8498 40.6864 101.876 38.599 104.466 38.599C106.642 38.599 108.406 39.8663 108.406 42.1774V48.7378Z" fill="#FFFFFF"/>
<path d="M115.762 45.9422C115.799 51.2725 120.153 54.7764 125.331 54.7764C129.872 54.7764 134 51.7943 134 49.9306C134 49.446 133.737 49.0733 133.137 49.0733C132.461 49.0733 132.199 49.446 131.748 49.856C130.172 51.2725 128.709 51.9807 126.495 52.0925C123.905 52.0925 121.691 50.3406 121.241 47.545C125.144 47.3213 133.662 46.4267 133.7 41.3946C133.737 37.6671 129.609 36.2134 126.457 36.2134C119.44 36.2134 115.799 40.1645 115.762 45.9422ZM126.119 38.2262C127.808 38.2262 128.821 39.1954 128.821 40.8728C128.821 44.6003 122.892 45.3458 120.941 45.5321C120.866 41.8046 122.517 38.2262 126.119 38.2262Z" fill="#FFFFFF"/>
<path d="M0 80.1512C0 87.8458 6.40471 94 13.9873 94C20.4656 94 25.1403 89.9389 25.1403 87.8015C25.1403 87.4097 24.6618 86.9109 23.9992 86.9109C22.6005 86.9109 20.6865 91.2214 15.1652 91.2214C8.72365 91.2214 5.88938 86.0916 5.88938 80.3206C5.44565 78.25 0 72.4565 0 80.1512Z" fill="#FFFFFF"/>
<path d="M46.5348 84.916C46.5348 79.6438 42.0809 76.0458 36.5596 76.0458C31.0383 76.0458 26.5845 79.6438 26.5845 84.916C26.5845 90.1883 31.0383 93.7863 36.5596 93.7863C42.0809 93.7863 46.5348 90.1883 46.5348 84.916ZM31.6641 84.916C31.6641 80.4631 33.799 78.1832 36.5596 78.1832C39.3203 78.1832 41.4552 80.4631 41.4552 84.916C41.4552 89.369 39.3203 91.6489 36.5596 91.6489C33.799 91.6489 31.6641 89.369 31.6641 84.916Z" fill="#FFFFFF"/>
<path d="M61.1628 89.8677C61.1628 92.2188 59.4328 91.1145 59.4328 92.4682C59.4328 93.0738 59.8377 93.43 60.7947 93.43H66.316C67.273 93.43 67.6779 93.0738 67.6779 92.4682C67.6779 91.1145 65.9479 92.2188 65.9479 89.8677V83.028C65.9479 78.2545 63.8498 76.0458 59.2855 76.0458C56.8194 76.0458 54.8317 77.0789 53.2121 78.8957C53.1385 76.7583 52.9913 76.0458 51.887 76.0458C51.1508 76.0458 47.1019 76.7583 47.1019 78.112C47.1019 79.7506 49.0527 78.3969 49.0527 81.1756V89.8677C49.0527 92.2188 47.3227 91.1145 47.3227 92.4682C47.3227 93.0738 47.7276 93.43 48.6846 93.43H54.2059C55.163 93.43 55.5679 93.0738 55.5679 92.4682C55.5679 91.1145 53.8379 92.2188 53.8379 89.8677V82.5293C53.8379 80.6768 55.2366 78.6819 57.666 78.6819C60.9419 78.6819 61.1628 80.7481 61.1628 83.313V89.8677Z" fill="#FFFFFF"/>
<path d="M71.0217 89.8677C71.0217 92.2188 69.2917 91.1145 69.2917 92.4682C69.2917 93.0738 69.6966 93.43 70.6536 93.43H76.1749C77.132 93.43 77.5369 93.0738 77.5369 92.4682C77.5369 91.1145 75.8069 92.2188 75.8069 89.8677V78.6819H80.2975C81.7699 78.6819 82.2484 79.1807 82.2484 81.0331V89.9033C82.2484 92.2545 80.5184 91.1501 80.5184 92.5038C80.5184 93.1094 80.9233 93.43 81.8803 93.43H87.4016C88.3586 93.43 88.7635 93.1094 88.7635 92.5038C88.7635 91.1501 87.0335 92.2545 87.0335 89.9033V78.112C87.0335 76.8295 86.6286 76.402 85.7084 76.402H75.7332V72.4122C75.7332 69.7761 76.7639 68.6361 79.1933 68.6361C80.7392 68.6361 81.8435 69.2774 81.8435 70.0611C81.8435 70.4885 81.6226 70.916 81.6226 71.4148C81.6226 72.626 82.8741 73.6947 84.4937 73.6947C86.1869 73.6947 87.2912 72.7684 87.2912 71.4148C87.2912 67.9949 84.2729 66 79.7086 66C74.4818 66 71.0585 68.5649 71.0585 74.8346V76.402H69.7702C68.9237 76.402 68.3715 76.6514 68.3715 77.542C68.3715 78.4326 68.9237 78.6819 69.7702 78.6819H71.0217V89.8677Z" fill="#FFFFFF"/>
<path d="M106.794 93.43C108.266 93.43 108.561 93.1094 108.561 92.3257C108.561 91.2926 106.72 91.7557 106.72 89.9746V82.3155C106.72 77.7557 102.819 76.0458 97.9967 76.0458C94.7208 76.0458 91.1135 77.1145 91.1135 78.8244C91.1135 79.7863 91.8497 80.2494 92.7331 80.2494C95.0888 80.2494 95.3465 78.1832 98.2544 78.1832C100.684 78.1832 101.935 79.7506 101.935 81.8168C96.6348 81.8168 89.862 83.6692 89.862 88.514C89.862 91.2926 92.1441 93.7863 96.3403 93.7863C98.8065 93.7863 101.125 93.0025 102.156 91.5064H102.303C102.23 92.6463 102.377 93.43 103.923 93.43H106.794ZM101.935 87.8728C101.862 89.5827 100.647 91.7913 98.2544 91.7913C96.3403 91.7913 94.9416 90.1171 94.9416 88.4784C94.9416 86.2341 97.6654 83.7405 101.935 83.7405V87.8728Z" fill="#FFFFFF"/>
<path d="M123.719 89.8677C123.719 92.2188 121.989 91.1145 121.989 92.4682C121.989 93.0738 122.394 93.43 123.351 93.43H128.872C129.829 93.43 130.234 93.0738 130.234 92.4682C130.234 91.1145 128.504 92.2188 128.504 89.8677V83.028C128.504 78.2545 126.406 76.0458 121.842 76.0458C119.375 76.0458 117.388 77.0789 115.768 78.8957C115.694 76.7583 115.547 76.0458 114.443 76.0458C113.707 76.0458 109.658 76.7583 109.658 78.112C109.658 79.7506 111.609 78.3969 111.609 81.1756V89.8677C111.609 92.2188 109.879 91.1145 109.879 92.4682C109.879 93.0738 110.284 93.43 111.241 93.43H116.762C117.719 93.43 118.124 93.0738 118.124 92.4682C118.124 91.1145 116.394 92.2188 116.394 89.8677V82.5293C116.394 80.6768 117.793 78.6819 120.222 78.6819C123.498 78.6819 123.719 80.7481 123.719 83.313V89.8677Z" fill="#ffffff"/>
<path d="M131.075 85.1654C131.075 90.2952 134.976 93.7863 140.203 93.7863C144.62 93.7863 147.933 90.8651 147.933 89.3333C147.933 88.8346 147.528 88.4784 147.013 88.4784C145.798 88.4784 144.768 91.2214 141.271 91.2214C138.51 91.2214 136.154 88.9415 136.154 85.201C136.154 80.8193 137.995 77.9695 140.498 77.9695C143.406 77.9695 143.001 81.4606 145.136 81.4606C146.608 81.4606 147.455 80.7481 147.455 79.7506C147.455 77.7557 144.105 76.0458 140.645 76.0458C135.197 76.0458 131.075 79.8575 131.075 85.1654Z" fill="#FFFFFF"/>
<path d="M149.111 85.3435C149.148 90.4377 153.418 93.7863 158.497 93.7863C162.951 93.7863 167 90.9364 167 89.1552C167 88.6921 166.742 88.3359 166.153 88.3359C165.491 88.3359 165.233 88.6921 164.791 89.084C163.246 90.4377 161.81 91.1145 159.638 91.2214C157.098 91.2214 154.927 89.5471 154.485 86.8753C158.313 86.6616 166.669 85.8066 166.706 80.9975C166.742 77.4351 162.693 76.0458 159.601 76.0458C152.718 76.0458 149.148 79.8219 149.111 85.3435ZM159.27 77.9695C160.927 77.9695 161.92 78.8957 161.92 80.4987C161.92 84.0611 156.105 84.7735 154.191 84.9517C154.117 81.3893 155.737 77.9695 159.27 77.9695Z" fill="#FFFFFF"/>
<path d="M5.88938 80.3206C5.88938 75.1471 9.004 69.0453 15.2263 69.0453C18.9596 69.0453 21.1923 70.4939 22.5832 73.529C22.8028 74.0119 23.0956 74.5638 23.7545 74.5638C24.5231 74.5638 24.8525 74.1844 24.8525 73.4256V70.5629C24.8525 67.9416 18.3008 66.7 14.9701 66.7C7.17392 66.7 0 72.0115 0 80.1512C3.02536 84.8838 4.26863 86.8033 5.88938 80.3206Z" fill="#FFFFFF"/>
</svg>
