<?xml version="1.0" encoding="UTF-8" standalone="no"?>
<!-- Created with Inkscape (http://www.inkscape.org/) -->

<svg
   version="1.1"
   id="svg1"
   width="150"
   height="150"
   viewBox="0 0 150 150"
   sodipodi:docname="logo-blue.svg"
   xml:space="preserve"
   inkscape:version="1.4 (86a8ad7, 2024-10-11)"
   xmlns:inkscape="http://www.inkscape.org/namespaces/inkscape"
   xmlns:sodipodi="http://sodipodi.sourceforge.net/DTD/sodipodi-0.dtd"
   xmlns="http://www.w3.org/2000/svg"
   xmlns:svg="http://www.w3.org/2000/svg"><defs
     id="defs1"><inkscape:path-effect
       effect="skeletal"
       id="path-effect3"
       is_visible="true"
       lpeversion="1"
       pattern="m 134.84021,-4.8113998 v 1.9567114 m -2.88229,-1.9567114 v 1.9567114 m -2.88228,-1.9567114 v 1.9567114 m -2.88227,-1.9567114 v 1.9567114 m -2.88228,-1.9567114 v 1.9567114 m -2.88228,-1.9567114 v 1.9567114 m -2.88228,-1.9567114 v 1.9567114 m -2.88227,-1.9567114 v 1.9567114 m -2.88229,-1.9567114 v 1.9567114 m -2.88228,-1.9567114 v 1.9567114 m -2.88228,-1.9567114 v 1.9567114 m -2.88227,-1.9567114 v 1.9567114 m -2.88228,-1.9567114 v 1.9567114 m -2.882283,-1.9567114 v 1.9567114 M 94.4883,-4.8113998 v 1.9567114 m -2.882281,-1.9567114 v 1.9567114 M 88.72374,-4.8113998 v 1.9567114 m -2.88228,-1.9567114 v 1.9567114 m -2.882277,-1.9567114 v 1.9567114 m -2.882279,-1.9567114 v 1.9567114 m -2.882281,-1.9567114 v 1.9567114 m -2.882278,-1.9567114 v 1.9567114 m -2.88228,-1.9567114 v 1.9567114 m -2.882278,-1.9567114 v 1.9567114 m -2.882278,-1.9567114 v 1.9567114 m -2.882281,-1.9567114 v 1.9567114 m -2.882277,-1.9567114 v 1.9567114 m -2.882279,-1.9567114 v 1.9567114 m -2.88228,-1.9567114 v 1.9567114 m -2.882279,-1.9567114 v 1.9567114 m -2.882279,-1.9567114 v 1.9567114 m -2.882279,-1.9567114 v 1.9567114 m -2.882287,-1.9567114 v 1.9567114 m -2.882276,-1.9567114 v 1.9567114 m -2.882276,-1.9567114 v 1.9567114 M 33.96044,-4.8113998 v 1.9567114 m -2.882276,-1.9567114 v 1.9567114 m -2.882275,-1.9567114 v 1.9567114 m -2.882277,-1.9567114 v 1.9567114 m -2.882298,-1.9567114 v 1.9567114 m -2.882276,-1.9567114 v 1.9567114 m -2.882276,-1.9567114 v 1.9567114 m -2.882275,-1.9567114 v 1.9567114 M 10.90221,-4.8113998 v 1.9567114 M 8.0199351,-4.8113998 v 1.9567114 M 5.1376588,-4.8113998 v 1.9567114 M 2.2553603,-4.8113998 v 1.9567114 m -2.88227593,-1.9567114 v 1.9567114 M -3.5091915,-4.8113998 v 1.9567114 m -2.8822759,-1.9567114 v 1.9567114"
       copytype="single_stretched"
       prop_scale="1"
       scale_y_rel="false"
       spacing="0"
       normal_offset="0"
       tang_offset="0"
       prop_units="false"
       vertical_pattern="false"
       hide_knot="false"
       fuse_tolerance="0" /><inkscape:path-effect
       effect="skeletal"
       id="path-effect1"
       is_visible="true"
       lpeversion="1"
       pattern="M 133.00263,0.08202718 V 3.8246547 M 131.66409,0.08202718 V 3.8246547 M 130.32556,0.08202718 V 3.8246547 M 128.98702,0.08202718 V 3.8246547 M 127.64849,0.08202718 V 3.8246547 M 126.30995,0.08202718 V 3.8246547 M 124.97142,0.08202718 V 3.8246547 M 123.63288,0.08202718 V 3.8246547 M 122.29435,0.08202718 V 3.8246547 M 120.95581,0.08202718 V 3.8246547 M 119.61728,0.08202718 V 3.8246547 M 118.27874,0.08202718 V 3.8246547 M 116.94021,0.08202718 V 3.8246547 M 115.60167,0.08202718 V 3.8246547 M 114.26314,0.08202718 V 3.8246547 M 112.9246,0.08202718 V 3.8246547 M 111.58606,0.08202718 V 3.8246547 M 110.24753,0.08202718 V 3.8246547 M 108.90899,0.08202718 V 3.8246547 M 107.57046,0.08202718 V 3.8246547 M 106.23192,0.08202718 V 3.8246547 M 104.89339,0.08202718 V 3.8246547 M 103.55485,0.08202718 V 3.8246547 M 102.21632,0.08202718 V 3.8246547 M 100.87778,0.08202718 V 3.8246547 M 99.539247,0.08202718 V 3.8246547 M 98.200712,0.08202718 V 3.8246547 M 96.862177,0.08202718 V 3.8246547 M 95.523642,0.08202718 V 3.8246547 M 94.185106,0.08202718 V 3.8246547 M 92.846571,0.08202718 V 3.8246547 M 91.508036,0.08202718 V 3.8246547 M 90.169501,0.08202718 V 3.8246547 M 88.830965,0.08202718 V 3.8246547 M 87.49243,0.08202718 V 3.8246547 M 86.153895,0.08202718 V 3.8246547 M 84.81536,0.08202718 V 3.8246547 M 83.476824,0.08202718 V 3.8246547 M 82.138289,0.08202718 V 3.8246547 M 80.799754,0.08202718 V 3.8246547 M 79.461219,0.08202718 V 3.8246547 M 78.122683,0.08202718 V 3.8246547 M 76.784148,0.08202718 V 3.8246547 M 75.445613,0.08202718 V 3.8246547 M 74.107078,0.08202718 V 3.8246547 M 72.768542,0.08202718 V 3.8246547 M 71.430007,0.08202718 V 3.8246547 M 70.091472,0.08202718 V 3.8246547 M 68.752937,0.08202718 V 3.8246547 M 67.414401,0.08202718 V 3.8246547 M 66.075868,0.08202718 V 3.8246547 M 64.737333,0.08202718 V 3.8246547 M 63.398798,0.08202718 V 3.8246547 M 62.060262,0.08202718 V 3.8246547 M 60.721727,0.08202718 V 3.8246547 M 59.383192,0.08202718 V 3.8246547 M 58.044657,0.08202718 V 3.8246547 M 56.706121,0.08202718 V 3.8246547 M 55.367586,0.08202718 V 3.8246547 M 54.029051,0.08202718 V 3.8246547 M 52.690516,0.08202718 V 3.8246547 M 51.35198,0.08202718 V 3.8246547 M 50.013445,0.08202718 V 3.8246547 M 48.674918,0.08202718 V 3.8246547 M 47.336364,0.08202718 V 3.8246547 M 45.997831,0.08202718 V 3.8246547 M 44.659298,0.08202718 V 3.8246547 M 43.320764,0.08202718 V 3.8246547 M 41.982231,0.08202718 V 3.8246547 M 40.643698,0.08202718 V 3.8246547 M 39.305165,0.08202718 V 3.8246547 M 37.966632,0.08202718 V 3.8246547 M 36.628099,0.08202718 V 3.8246547 M 35.289566,0.08202718 V 3.8246547 M 33.951011,0.08202718 V 3.8246547 M 32.612478,0.08202718 V 3.8246547 M 31.273945,0.08202718 V 3.8246547 M 29.935412,0.08202718 V 3.8246547 M 28.596879,0.08202718 V 3.8246547 M 27.258346,0.08202718 V 3.8246547 M 25.919812,0.08202718 V 3.8246547 M 24.581279,0.08202718 V 3.8246547 M 23.242746,0.08202718 V 3.8246547 M 21.904213,0.08202718 V 3.8246547 M 20.565659,0.08202718 V 3.8246547 M 19.227126,0.08202718 V 3.8246547 M 17.888592,0.08202718 V 3.8246547 M 16.550059,0.08202718 V 3.8246547 M 15.211526,0.08202718 V 3.8246547 M 13.872993,0.08202718 V 3.8246547 M 12.53446,0.08202718 V 3.8246547 M 11.195927,0.08202718 V 3.8246547 M 9.8573936,0.08202718 V 3.8246547 M 8.5188605,0.08202718 V 3.8246547 M 7.1803062,0.08202718 V 3.8246547 M 5.841773,0.08202718 V 3.8246547 M 4.5032399,0.08202718 V 3.8246547 M 3.1647067,0.08202718 V 3.8246547 M 1.8261736,0.08202718 V 3.8246547 M 0.48764046,0.08202718 V 3.8246547"
       copytype="single_stretched"
       prop_scale="1"
       scale_y_rel="false"
       spacing="0"
       normal_offset="0"
       tang_offset="0"
       prop_units="false"
       vertical_pattern="false"
       hide_knot="false"
       fuse_tolerance="0" /><inkscape:path-effect
       effect="interpolate"
       id="path-effect11"
       is_visible="true"
       lpeversion="1"
       trajectory="M -60.375462,-21.817793 H -122.999"
       equidistant_spacing="true"
       steps="50" /><linearGradient
       id="swatch743"
       inkscape:swatch="solid"><stop
         style="stop-color:#fcffff;stop-opacity:1;"
         offset="0"
         id="stop743" /></linearGradient><linearGradient
       id="swatch743-4"
       inkscape:swatch="solid"><stop
         style="stop-color:#dc143c;stop-opacity:1;"
         offset="0"
         id="stop743-8" /></linearGradient></defs><sodipodi:namedview
     id="namedview1"
     pagecolor="#ffffff"
     bordercolor="#000000"
     borderopacity="0.25"
     inkscape:showpageshadow="2"
     inkscape:pageopacity="0.0"
     inkscape:pagecheckerboard="0"
     inkscape:deskcolor="#d1d1d1"
     showgrid="true"
     inkscape:zoom="5.38"
     inkscape:cx="63.568773"
     inkscape:cy="79.089219"
     inkscape:window-width="1920"
     inkscape:window-height="1009"
     inkscape:window-x="-8"
     inkscape:window-y="-8"
     inkscape:window-maximized="1"
     inkscape:current-layer="g7"><inkscape:grid
       id="grid3"
       units="px"
       originx="0"
       originy="0"
       spacingx="1"
       spacingy="1"
       empcolor="#0099e5"
       empopacity="0.30196078"
       color="#0099e5"
       opacity="0.14901961"
       empspacing="5"
       enabled="true"
       visible="true" /></sodipodi:namedview><g
     id="g7"
     inkscape:label="logo-bleu"><circle
       style="fill:#185971;fill-opacity:1;stroke:#185971;stroke-width:0.5;stroke-linecap:round;stroke-linejoin:round;stroke-dasharray:none;stroke-opacity:1;paint-order:fill markers stroke"
       id="path743-6"
       cx="75.195099"
       cy="75.195045"
       r="72.25" /><ellipse
       style="display:inline;fill:#185971;fill-opacity:1;stroke:#ffffff;stroke-width:0.5;stroke-linecap:round;stroke-linejoin:round;stroke-dasharray:0.999999, 2;stroke-dashoffset:0;stroke-opacity:1;paint-order:fill markers stroke"
       id="path2"
       cx="75"
       cy="74.753456"
       rx="69.749992"
       ry="69.753456"
       inkscape:label="path2" /><path
       style="fill:#f8f8ff;stroke:#fffffa;stroke-width:0.289499;stroke-linecap:round;stroke-linejoin:round;stroke-opacity:0.979339;paint-order:fill markers stroke"
       id="path1"
       inkscape:path-effect="#path-effect3"
       sodipodi:type="arc"
       sodipodi:cx="75"
       sodipodi:cy="75"
       sodipodi:rx="66.141167"
       sodipodi:ry="62.058887"
       d="m 142.11953,75.000012 h -1.95671 m 1.34183,-8.319907 -1.93091,0.283489 m 0.14788,-8.421014 -1.87426,0.548701 m -1.00014,-8.37418 -1.78675,0.795635 m -2.10224,-8.179458 -1.66837,1.024292 m -3.1584,-7.836768 -1.51913,1.234674 m -4.16863,-7.346136 -1.33904,1.426777 m -5.09299,-6.722486 -1.14321,1.583669 m -5.89385,-6.028105 -0.94036,1.713087 m -6.58626,-5.276732 -0.7305,1.81504 m -7.170307,-4.468437 -0.513618,1.889528 m -7.645946,-3.603203 -0.289728,1.936553 m -8.013255,-2.681042 -0.05882,1.956113 m -8.272644,-1.70686 0.175152,1.949766 m -8.420856,-0.716999 0.40255,1.916474 m -8.447176,0.27075 0.622934,1.855717 m -8.351067,1.256489 0.836303,1.767496 m -8.132556,2.240221 1.042658,1.651811 m -7.791622,3.221939 1.241998,1.508661 m -7.321895,4.203774 1.432946,1.333009 m -6.699811,5.14517 1.597611,1.131768 m -5.965086,5.982584 1.731416,0.912249 m -5.122712,6.708624 1.834361,0.674453 m -4.1726792,7.323266 1.9064462,0.418379 m -3.1149944,7.826526 1.9476713,0.144029 M 8.0370897,79.174633 9.984761,79.030604 m -0.7391233,8.388931 1.9064463,-0.418379 m 0.431873,8.416101 1.834361,-0.674453 m 1.556935,8.295326 1.731416,-0.91225 m 2.636061,8.0266 1.59761,-1.13176 m 3.669252,7.60994 1.432946,-1.33301 m 4.646951,7.04544 1.241998,-1.50866 m 5.50699,6.38243 1.042657,-1.65181 m 6.253587,5.65952 0.836302,-1.7675 m 6.891824,4.8797 0.622934,-1.85572 m 7.421678,4.04294 0.40255,-1.91647 m 7.843151,3.14924 0.175152,-1.94977 m 8.156292,2.19902 -0.05882,-1.95611 m 8.361797,1.21163 -0.289727,-1.93656 m 8.44937,0.22287 -0.513619,-1.88953 m 8.414407,-0.76387 -0.73049,-1.81504 m 8.2571,-1.7486 -0.94035,-1.71309 m 7.97738,-2.73133 -1.14321,-1.58366 m 7.57526,-3.71206 -1.33904,-1.42677 m 7.02679,-4.68468 -1.51914,-1.23467 m 6.34591,-5.57779 -1.66837,-1.02429 m 5.55738,-6.359581 -1.78675,-0.795634 m 4.66115,-7.029862 -1.87426,-0.5487 m 3.65729,-7.588815 -1.93092,-0.283488 M 142.11952,75 h -1.95671"
       transform="matrix(1.0046741,0,0,1.0688705,-0.33767498,-5.0643868)" /><circle
       style="fill:#185971;fill-opacity:1;fill-rule:evenodd;stroke:#fffffa;stroke-width:0.3;stroke-linecap:round;stroke-linejoin:round;stroke-opacity:0.979339;paint-order:fill markers stroke"
       id="path3"
       cx="75"
       cy="73.224876"
       r="61.775124" /><text
       xml:space="preserve"
       style="font-style:normal;font-variant:normal;font-weight:normal;font-stretch:normal;font-size:9.5px;font-family:'EB Garamond';-inkscape-font-specification:'EB Garamond, Normal';font-variant-ligatures:normal;font-variant-caps:normal;font-variant-numeric:normal;font-variant-east-asian:normal;text-align:start;letter-spacing:0.94px;writing-mode:lr-tb;direction:ltr;text-anchor:start;fill:#ffffff;fill-opacity:0.58;fill-rule:evenodd;stroke:#000000;stroke-width:0.3;stroke-linecap:round;stroke-linejoin:round;stroke-opacity:0;paint-order:fill markers stroke"
       x="34.657764"
       y="39.743439"
       id="text3"><tspan
         sodipodi:role="line"
         id="tspan3"
         x="34.657764"
         y="39.743439"
         style="font-style:normal;font-variant:normal;font-weight:normal;font-stretch:normal;font-size:9.5px;font-family:'EB Garamond';-inkscape-font-specification:'EB Garamond, Normal';font-variant-ligatures:normal;font-variant-caps:normal;font-variant-numeric:normal;font-variant-east-asian:normal;fill:#ffffff;fill-opacity:0.58;stroke:#ffffff;stroke-opacity:0"
         dx="7.4349446 0 0 0 0 0 0 0 -2.1037982e-07">ATELIER DES</tspan></text><text
       xml:space="preserve"
       style="font-style:normal;font-variant:normal;font-weight:normal;font-stretch:normal;font-size:9px;line-height:2.3;font-family:'EB Garamond';-inkscape-font-specification:'EB Garamond, Normal';font-variant-ligatures:normal;font-variant-caps:normal;font-variant-numeric:normal;font-variant-east-asian:normal;text-align:start;letter-spacing:1.18929px;word-spacing:0px;writing-mode:lr-tb;direction:ltr;text-anchor:start;fill:#ffffff;fill-opacity:0.578512;fill-rule:evenodd;stroke:#fffffa;stroke-width:0;stroke-linecap:round;stroke-linejoin:round;stroke-dasharray:none;stroke-opacity:0.979339;paint-order:fill markers stroke"
       x="22.088882"
       y="55.899101"
       id="text4"
       transform="scale(1.1219754,0.89128514)"><tspan
         sodipodi:role="line"
         id="tspan4"
         x="22.088882"
         y="55.899101"
         style="font-style:normal;font-variant:normal;font-weight:normal;font-stretch:normal;font-size:9px;line-height:2.3;font-family:'EB Garamond';-inkscape-font-specification:'EB Garamond, Normal';font-variant-ligatures:normal;font-variant-caps:normal;font-variant-numeric:normal;font-variant-east-asian:normal;letter-spacing:1.18929px;word-spacing:0px;fill:#ffffff;fill-opacity:0.578512;stroke-width:0">FRÈRES D'ANTAN</tspan></text><path
       style="fill:#ffffff;fill-opacity:0.504132;stroke-width:1"
       d="m 91.667627,99.06672 -1.013159,-1.253627 -8.603779,-0.02422 c -4.732078,-0.01337 -8.449969,-0.06523 -8.261976,-0.115225 0.271703,-0.07236 0.372175,-0.496119 0.489903,-2.066431 0.146694,-1.956653 0.153385,-1.975588 0.703516,-1.99009 1.3892,-0.03668 2.602814,-0.173179 4.736693,-0.532933 2.095116,-0.353231 2.225307,-0.400668 1.463446,-0.533304 -0.45994,-0.0801 -0.03673,-0.09628 0.940468,-0.03608 0.977197,0.0602 2.059103,0.218565 2.404234,0.351905 1.035342,0.399985 3.031749,0.208595 3.031749,-0.29067 0,-0.224243 0.141115,-0.407703 0.313596,-0.407703 0.351515,0 0.427525,-0.532109 0.104532,-0.73174 -0.396419,-0.245007 -0.207767,-0.464436 0.313596,-0.364779 0.728909,0.13935 0.671171,-0.293401 -0.156803,-1.175203 l -0.679452,-0.723633 0.751914,0.449575 c 0.788939,0.471715 1.025128,0.425283 1.025128,-0.201547 0,-0.66711 -1.887444,-1.371296 -2.773045,-1.034595 -0.27629,0.105044 -0.627242,0.113808 -0.779894,0.0195 -0.191848,-0.118562 -0.03115,-0.239566 0.520489,-0.391876 0.438921,-0.121185 0.876375,-0.171929 0.972123,-0.112753 0.333425,0.206069 4.123367,-6.005222 4.195427,-6.875829 0.02573,-0.31057 0.130491,-0.564679 0.232862,-0.564679 0.102371,0 0.129557,0.225395 0.0604,0.500871 -0.15425,0.614608 0.149838,0.760497 1.271578,0.610035 0.604106,-0.081 0.918576,-0.01658 1.176203,0.241044 0.303786,0.303797 0.367916,0.309204 0.471313,0.0398 0.156441,-0.407686 -1.253167,-1.722169 -2.186065,-2.038548 -0.53091,-0.180049 -0.905058,-0.179959 -1.506933,4.12e-4 -1.032173,0.309254 -1.27379,0.673131 -0.358229,0.539524 l 0.689855,-0.100673 -0.731724,0.227194 c -0.402449,0.124964 -0.837401,0.31442 -0.966555,0.421032 -0.389475,0.321465 -0.978646,-0.007 -0.67301,-0.375746 1.18393,-1.426555 3.272126,-1.422499 5.056937,0.01005 0.477635,0.383304 1.033078,0.755553 1.234302,0.827231 0.444068,0.158159 0.457726,0.52695 0.04,1.0796 -0.259284,0.343002 -0.373997,0.369655 -0.672809,0.1563 -0.577996,-0.41269 -1.346291,-0.696226 -1.702691,-0.628377 -0.564981,0.107577 -3.897087,6.420837 -3.603571,6.827577 0.493695,0.684126 0.517142,0.930054 0.12015,1.260242 -0.233215,0.193979 -0.372751,0.530318 -0.333797,0.804628 0.0401,0.282711 -0.06442,0.521738 -0.261325,0.597296 -0.180551,0.06924 -0.328258,0.216263 -0.328258,0.326618 0,0.469135 -1.117932,1.636215 -1.567295,1.636215 -0.259787,0 -0.605574,0.200656 -0.768397,0.445885 -0.344369,0.518661 -0.987976,0.41117 -1.623656,-0.271158 -0.609908,-0.654665 -2.415934,-0.725137 -5.107521,-0.199299 -1.246345,0.243439 -2.726687,0.442658 -3.289651,0.442658 -0.671547,0 -1.028686,0.08985 -1.038446,0.261328 -0.0081,0.143742 -0.08125,0.990459 -0.162375,1.881609 l -0.147501,1.620281 h 7.987729 7.987729 l 0.06683,-0.470406 c 0.06593,-0.46413 0.109979,-0.470562 3.307292,-0.482039 l 3.240488,-0.01166 -2.999977,0.116164 -2.999968,0.11617 0.874838,0.993072 0.874837,0.993078 h 4.477103 c 2.462416,1e-5 4.477135,-0.07447 4.477135,-0.165531 0,-0.09105 -0.39983,-0.557063 -0.88853,-1.0356 -0.84692,-0.82931 -0.95708,-0.873501 -2.351981,-0.943394 l -1.463457,-0.07337 1.605074,-0.04091 c 1.487104,-0.03799 1.635304,-0.003 2.016204,0.481724 0.25522,0.324457 0.63758,0.53057 1.00824,0.543505 0.56583,0.0198 0.57102,0.02814 0.099,0.160445 -0.45098,0.126385 -0.46582,0.166415 -0.15679,0.4229 0.22062,0.182736 0.34134,0.606604 0.34134,1.198142 v 0.915218 l -4.756225,-8.4e-4 -4.756196,-8.3e-4 z M 86.095276,88.30057 c 0,-0.05749 -0.04704,-0.104532 -0.104532,-0.104532 -0.05749,0 -0.104532,0.04704 -0.104532,0.104532 0,0.05749 0.04703,0.104532 0.104532,0.104532 0.05749,0 0.104532,-0.04703 0.104532,-0.104532 z m 3.261001,-0.993058 c 0.302621,-0.603674 1.064676,-2.011161 1.693445,-3.127745 1.036846,-1.841263 1.211981,-2.464706 0.692387,-2.464706 -0.100301,0 -0.739432,0.91726 -1.420402,2.038367 -0.68097,1.121107 -1.552411,2.538986 -1.936538,3.150851 -0.578489,0.921471 -0.646579,1.145268 -0.39656,1.303448 0.56891,0.359947 0.818205,0.195858 1.367668,-0.900215 z m 5.937805,-5.383387 c 0,-0.114994 -0.09407,-0.209064 -0.209063,-0.209064 -0.114984,0 -0.209064,0.09407 -0.209064,0.209064 0,0.114984 0.09407,0.209064 0.209064,0.209064 0.114984,0 0.209063,-0.09407 0.209063,-0.209064 z M 61.495427,99.137192 c 0.07666,-0.07668 0.202096,-0.07668 0.278752,0 0.07665,0.0767 0.01394,0.13938 -0.139376,0.13938 -0.153313,0 -0.216032,-0.0627 -0.139376,-0.13938 z m 21.832186,-0.008 c 0.260057,-0.05005 0.636372,-0.04814 0.836256,0.004 0.199883,0.0524 -0.0129,0.0933 -0.472832,0.0909 -0.45994,-0.002 -0.62348,-0.0451 -0.363424,-0.0952 z m -4.797839,-0.204013 c 0.150917,-0.0604 0.331235,-0.05296 0.400707,0.01648 0.06947,0.06945 -0.05401,0.118888 -0.274397,0.109813 -0.243548,-0.01005 -0.293087,-0.0596 -0.12631,-0.126315 z m -8.741481,-0.379854 c 0,-0.05749 0.04703,-0.104532 0.104532,-0.104532 0.05749,0 0.104532,0.04704 0.104532,0.104532 0,0.05749 -0.04704,0.104536 -0.104532,0.104536 -0.0575,0 -0.104532,-0.04703 -0.104532,-0.104536 z m -4.285809,-0.740212 c 5.7273,-0.156415 5.388006,-0.11816 4.703937,-0.53033 l -0.52266,-0.314916 0.52266,0.140897 c 0.287462,0.07749 0.554019,0.222535 0.592346,0.322324 0.03833,0.0998 0.273527,0.193198 0.522659,0.2076 2.003725,0.115752 -2.377888,0.355975 -6.132537,0.336217 l -4.703937,-0.02523 z M 61.29556,96.768246 c 0.339011,-1.136468 0.989201,-2.508811 1.188621,-2.508811 0.07961,0 0.263648,0.143269 0.408977,0.318387 0.220252,0.265379 0.208535,0.297011 -0.07039,0.189963 -0.386209,-0.148194 -1.185902,0.996374 -1.187178,1.699159 -4.18e-4,0.236746 -0.140257,0.613073 -0.310725,0.836285 -0.276087,0.361493 -0.279288,0.303047 -0.0293,-0.534983 z m 7.447413,-0.104536 c 0,-0.05749 0.04704,-0.104532 0.104532,-0.104532 0.0575,0 0.104532,0.04704 0.104532,0.104532 0,0.05749 -0.04703,0.104536 -0.104532,0.104536 -0.0575,0 -0.104532,-0.04703 -0.104532,-0.104536 z m -0.418128,-0.209067 c 0,-0.05749 0.04703,-0.104532 0.104532,-0.104532 0.0575,0 0.104532,0.04704 0.104532,0.104532 0,0.05749 -0.04703,0.104535 -0.104532,0.104535 -0.05749,0 -0.104532,-0.04703 -0.104532,-0.104535 z m -0.418127,-0.209068 c 0,-0.05749 0.04703,-0.104536 0.104532,-0.104536 0.0575,0 0.104532,0.04703 0.104532,0.104536 0,0.05749 -0.04703,0.104536 -0.104532,0.104536 -0.0575,0 -0.104532,-0.04703 -0.104532,-0.104536 z m -0.65386,-0.470411 c -0.260048,-0.331589 -0.252653,-0.338986 0.07894,-0.07889 0.348247,0.273118 0.458995,0.444809 0.286927,0.444809 -0.04341,0 -0.20805,-0.164642 -0.365862,-0.365875 z m -4.781799,-0.261329 c -0.172479,-0.11147 -0.219517,-0.202665 -0.104532,-0.202665 0.114985,0 0.350181,0.09116 0.522659,0.202665 0.172478,0.111471 0.219517,0.202666 0.104532,0.202666 -0.114985,0 -0.350182,-0.09116 -0.522659,-0.202666 z m 4.056781,-0.03226 c -0.09242,-0.14955 -0.05735,-0.184625 0.09219,-0.09216 0.240998,0.148958 0.323561,0.33357 0.149173,0.33357 -0.0507,0 -0.159322,-0.108613 -0.241366,-0.241365 z m -1.75708,-0.07226 c 0,-0.05749 0.04704,-0.104532 0.104532,-0.104532 0.0575,0 0.104532,0.04704 0.104532,0.104532 0,0.05749 -0.04704,0.104536 -0.104532,0.104536 -0.05749,0 -0.104532,-0.04703 -0.104532,-0.104536 z m 0.731724,-0.104532 c 0.07106,-0.114988 0.176247,-0.209068 0.233739,-0.209068 0.0575,0 0.04639,0.09407 -0.02467,0.209068 -0.07107,0.114988 -0.176247,0.209068 -0.23374,0.209068 -0.05749,0 -0.04639,-0.09407 0.02467,-0.209068 z m -3.031425,-1.411219 c 0,-0.0998 0.136439,-0.364065 0.303196,-0.587274 0.292516,-0.391523 0.298993,-0.389131 0.18383,0.06784 -0.11893,0.471918 -0.487026,0.864506 -0.487026,0.519435 z m 8.362553,-0.157215 c -0.862389,-0.149118 -1.715062,-0.33097 -1.894829,-0.404099 -0.34099,-0.138733 -1.659478,-2.527694 -1.659338,-3.006545 4.6e-5,-0.151265 -0.329194,-0.987711 -0.731642,-1.85875 -0.402448,-0.871049 -0.731723,-1.757836 -0.731723,-1.970639 0,-0.212802 -0.188157,-0.504418 -0.418127,-0.648035 -0.229971,-0.143617 -0.418129,-0.361083 -0.418129,-0.483243 0,-0.12217 -0.264982,-0.593453 -0.588849,-1.047299 -0.585985,-0.821159 -1.216574,-2.499971 -0.855121,-2.276586 0.104272,0.06442 0.191027,-0.194129 0.192788,-0.574619 0.0024,-0.510016 0.05447,-0.610719 0.198328,-0.383233 0.159345,0.251978 0.233007,0.213637 0.401675,-0.209064 0.113601,-0.284701 0.212511,-0.381213 0.219799,-0.214491 0.01031,0.235778 0.069,0.247396 0.264129,0.05226 0.137983,-0.137979 0.344122,-0.250882 0.458086,-0.250882 0.113965,0 0.06012,0.117607 -0.119655,0.261335 -0.179776,0.143727 -0.38104,0.496529 -0.447252,0.783994 -0.11854,0.514629 -0.114894,0.516237 0.237496,0.104532 0.196836,-0.229979 0.544757,-0.555655 0.773155,-0.723744 0.228401,-0.168089 0.156556,-0.02181 -0.159653,0.325033 -0.640566,0.702648 -0.7375,1.130434 -0.256156,1.130434 0.175324,0 0.412064,-0.245385 0.526087,-0.545293 0.187352,-0.49277 0.282488,-0.532287 0.987878,-0.410368 0.486839,0.08412 0.67563,0.06422 0.501704,-0.05286 -0.336551,-0.226561 0.120705,-0.454982 0.910811,-0.454982 0.271273,0 0.541818,-0.07859 0.601216,-0.174732 0.0594,-0.09608 0.616564,-0.132562 1.238153,-0.081 1.090584,0.09045 1.135229,0.07357 1.274833,-0.48269 0.192387,-0.766527 0.01653,-0.895996 -1.341919,-0.98795 l -1.149852,-0.07784 1.202118,-0.03867 c 0.797005,-0.02564 1.204613,-0.126741 1.209525,-0.300003 0.0041,-0.14373 0.141859,-0.02613 0.306187,0.261331 0.265089,0.463722 0.299359,0.475511 0.303924,0.104532 0.0084,-0.687452 -0.595493,-2.456088 -0.995766,-2.916044 -0.796447,-0.915193 -0.881725,-1.220561 -0.113284,-0.405657 0.757337,0.80313 1.137308,1.799432 1.404062,3.681514 0.02805,0.197898 0.116439,0.425254 0.196424,0.505233 0.07999,0.08 0.141746,0.388469 0.137244,0.685512 -0.0076,0.503404 -0.03053,0.490389 -0.337289,-0.191646 l -0.329106,-0.731724 -0.205135,0.581956 c -0.144837,0.410901 -0.132582,0.669382 0.04169,0.87937 0.135756,0.163567 0.186136,0.395605 0.111958,0.515625 -0.07418,0.120029 -0.03991,0.218229 0.07614,0.218229 0.116058,0 0.305687,-0.164642 0.421398,-0.365867 0.296716,-0.515996 0.03379,1.110585 -0.312593,1.933845 -0.300169,0.713412 -0.399205,0.551172 -0.605858,-0.992515 -0.150106,-1.121278 -0.586815,-1.495838 -1.514302,-1.298784 -3.500337,0.743663 -4.237832,1.102273 -4.237832,2.060718 0,1.85076 2.874379,9.476425 3.748293,9.944132 0.204642,0.109517 1.020813,0.263871 1.813712,0.343 1.529001,0.152582 2.769935,0.482417 1.755229,0.466538 -0.287463,-0.004 -1.22825,-0.130194 -2.090638,-0.279309 z m -5.714411,-9.816456 c 0,-0.167426 -0.0784,-0.255948 -0.174221,-0.196732 -0.09582,0.0592 -0.17422,0.1962 -0.17422,0.3044 0,0.1082 0.0784,0.196732 0.17422,0.196732 0.09582,0 0.174221,-0.136984 0.174221,-0.3044 z m -0.455657,-1.714259 c -0.171001,-0.171003 -0.312352,-0.421795 -0.314111,-0.557312 -0.0073,-0.563503 -0.408768,0.429514 -0.411727,1.018445 -0.005,0.994646 0.436019,1.278493 0.766226,0.493162 0.228708,-0.543936 0.222466,-0.691442 -0.04039,-0.954295 z m 1.988791,-0.594638 c 0,-0.05749 -0.04703,-0.104532 -0.104532,-0.104532 -0.0575,0 -0.104532,0.04703 -0.104532,0.104532 0,0.05749 0.04703,0.104532 0.104532,0.104532 0.0575,0 0.104532,-0.04703 0.104532,-0.104532 z m -1.881575,11.28948 c 0,-0.05749 0.04704,-0.104536 0.104532,-0.104536 0.0575,0 0.104532,0.04704 0.104532,0.104536 0,0.05749 -0.04704,0.104536 -0.104532,0.104536 -0.05749,0 -0.104532,-0.04704 -0.104532,-0.104536 z m -1.984124,-0.932465 c -0.07865,-0.407051 -0.216664,-1.1164 -0.306696,-1.576336 -0.09003,-0.459947 -0.505176,-2.309702 -0.922543,-4.110593 -1.44476,-6.233934 -0.71062,-10.670374 2.234659,-13.504161 0.767759,-0.738696 0.753204,-0.702299 -0.257958,0.645056 -1.358179,1.809753 -1.756519,2.606687 -2.21223,4.425865 -0.457597,1.826706 -0.322425,5.533583 0.282073,7.735366 0.220983,0.804888 0.463269,1.839755 0.538412,2.299701 0.07515,0.459936 0.220076,1.07145 0.322067,1.358915 0.101995,0.287455 0.246826,0.981339 0.32185,1.541958 0.08833,0.66005 0.310172,1.193083 0.629408,1.512325 l 0.492999,0.493005 -0.489518,-0.0405 c -0.38224,-0.03166 -0.520859,-0.202706 -0.632523,-0.780593 z m 11.601061,-0.112882 c 0,-0.05749 0.04703,-0.104532 0.104532,-0.104532 0.05749,0 0.104532,0.04704 0.104532,0.104532 0,0.05749 -0.04704,0.104536 -0.104532,0.104536 -0.0575,0 -0.104532,-0.04703 -0.104532,-0.104536 z m -5.226595,-0.209068 c 0,-0.05749 0.04703,-0.104532 0.104531,-0.104532 0.05749,0 0.104532,0.04703 0.104532,0.104532 0,0.05749 -0.04704,0.104536 -0.104532,0.104536 -0.0575,0 -0.104531,-0.04703 -0.104531,-0.104536 z m 1.045319,0 c 0,-0.05749 0.04703,-0.104532 0.104531,-0.104532 0.05749,0 0.104532,0.04703 0.104532,0.104532 0,0.05749 -0.04703,0.104536 -0.104532,0.104536 -0.0575,0 -0.104531,-0.04703 -0.104531,-0.104536 z m 16.306983,-0.627203 c 0,-0.05749 0.04703,-0.104528 0.104531,-0.104528 0.05749,0 0.104532,0.04703 0.104532,0.104528 0,0.05749 -0.04703,0.104536 -0.104532,0.104536 -0.05749,0 -0.104531,-0.04703 -0.104531,-0.104536 z m 0.209063,-1.022953 c 0,-0.04523 0.145999,-0.13819 0.32445,-0.206672 0.186049,-0.07136 0.269968,-0.03638 0.196722,0.08221 -0.122773,0.198652 -0.521172,0.293827 -0.521172,0.124502 z m -8.676153,-0.335958 c -0.703098,-0.125888 -0.586585,-0.153948 0.731724,-0.176199 0.862388,-0.01457 1.709097,0.06472 1.881574,0.176199 0.36955,0.238823 -1.279452,0.238823 -2.613298,0 z m 4.913,-0.0802 c 0,-0.04412 0.188287,-0.129386 0.418416,-0.189567 0.230129,-0.0602 0.365695,-0.02412 0.301257,0.0802 -0.112529,0.182069 -0.719673,0.27438 -0.719673,0.109416 z m -6.202227,-0.26829 c 0.07665,-0.07668 0.202095,-0.07668 0.278752,0 0.07665,0.07668 0.01394,0.139376 -0.139376,0.139376 -0.153313,0 -0.216032,-0.06271 -0.139376,-0.139376 z m -0.736079,-0.212501 c 0.150917,-0.0604 0.331234,-0.05296 0.400706,0.01648 0.06947,0.06945 -0.05401,0.118883 -0.274396,0.109808 -0.243549,-0.01005 -0.293086,-0.0596 -0.12631,-0.126311 z m 7.983625,0.05297 c 0,-0.05749 0.188158,-0.205235 0.418128,-0.328309 0.22997,-0.123075 0.418127,-0.176743 0.418127,-0.119246 0,0.05749 -0.188157,0.205235 -0.418127,0.32831 -0.22997,0.123074 -0.418128,0.176732 -0.418128,0.119245 z m -10.453191,-0.328309 -0.731724,-0.154029 0.853528,-0.02754 0.853529,-0.02754 -0.176646,-1.202122 c -0.09716,-0.661161 -0.263731,-1.86067 -0.370166,-2.665558 -0.269066,-2.034799 -0.597585,-3.857851 -0.828819,-4.599413 -0.480944,-1.542366 -1.095957,-2.954341 -1.630691,-3.743812 -0.318732,-0.470573 -0.689202,-1.104794 -0.823264,-1.40938 -0.642377,-1.459467 -4.00024,-4.164484 -5.226983,-4.210733 -0.181682,-0.0068 -0.182171,-0.103844 -0.0019,-0.392383 0.270549,-0.43322 0.597011,-0.521978 0.44292,-0.120422 -0.0604,0.157411 0.298675,0.452756 0.895082,0.736204 0.547775,0.260339 1.366563,0.823334 1.819531,1.251101 0.527286,0.49795 1.044185,0.788854 1.436785,0.808598 0.337263,0.01695 0.691847,0.158082 0.787962,0.313598 0.13647,0.220816 0.230026,0.227487 0.427061,0.03045 0.197033,-0.197034 0.309709,-0.173807 0.514328,0.106028 0.236365,0.323249 0.276629,0.300123 0.411239,-0.236206 0.105523,-0.420431 0.199016,-0.513964 0.319266,-0.319396 0.224588,0.36339 0.390008,0.173272 0.446853,-0.513572 0.028,-0.338337 0.172297,-0.560596 0.366452,-0.564452 0.251484,-0.005 0.238463,-0.05393 -0.06062,-0.227862 -0.292985,-0.170386 -0.476004,-0.135434 -0.792988,0.151433 -0.335767,0.303864 -0.388694,0.31196 -0.285759,0.04372 0.08973,-0.233821 -0.0573,-0.393238 -0.50736,-0.550131 -0.516407,-0.18002 -0.678032,-0.396976 -0.873227,-1.17217 -0.131744,-0.523195 -0.326507,-0.897509 -0.43281,-0.831811 -0.174555,0.107881 -0.02403,-0.931732 0.166944,-1.152999 0.04157,-0.04816 -0.08927,-0.27601 -0.290741,-0.50633 -0.201475,-0.230321 -0.258711,-0.356175 -0.12719,-0.279679 0.15391,0.08952 0.228414,-0.03718 0.209064,-0.355521 -0.01835,-0.302065 -0.131796,-0.455588 -0.291394,-0.394376 -0.143731,0.05512 -0.26133,0.04009 -0.26133,-0.03341 0,-0.0735 0.211678,-0.218718 0.470394,-0.322711 l 0.470393,-0.189075 -0.492761,-0.01326 c -0.349401,-0.0094 -0.457751,-0.104486 -0.372421,-0.326848 0.07189,-0.187351 0.0017,-0.313596 -0.17436,-0.313596 -0.358747,0 -0.546823,0.283974 -0.749463,1.131602 l -0.154301,0.645441 -0.01476,-0.627192 c -0.01902,-0.808881 0.406289,-1.358915 1.050772,-1.358915 0.589216,0 1.011818,0.352184 1.011818,0.843224 0,0.466552 0.592011,0.433228 0.742784,-0.04181 0.06682,-0.210801 0.198583,-0.383279 0.292718,-0.383279 0.09414,0 0.337682,-0.350934 0.541218,-0.779852 0.328358,-0.691964 0.388572,-0.733196 0.534298,-0.365861 0.157943,0.398138 0.169635,0.395979 0.305332,-0.0564 0.144864,-0.482949 1.346714,-0.716169 1.346714,-0.26133 0,0.114985 -0.135741,0.209064 -0.301646,0.209064 -0.816198,0 -2.500617,1.489894 -2.895407,2.561032 -0.07417,0.201224 -0.237429,0.365862 -0.362809,0.365862 -0.125379,0 -0.173838,-0.08758 -0.107685,-0.194618 0.06616,-0.10704 0.03554,-0.246992 -0.06804,-0.311007 -0.386466,-0.23885 -0.08885,2.414374 0.334758,2.984372 0.486478,0.654585 1.446807,0.818062 2.270464,0.386504 0.505864,-0.265049 0.604117,-0.255541 0.951763,0.0921 0.66686,0.666859 0.808321,0.466363 0.722136,-1.023516 -0.08012,-1.385043 -0.09581,-1.418381 -0.84717,-1.799958 -0.978323,-0.49684 -0.835298,-0.654234 0.2536,-0.279077 l 0.839582,0.289258 0.232418,-0.775744 c 0.303379,-1.012587 0.293928,-1.458958 -0.03088,-1.458958 -0.437575,0 -0.825614,-0.774788 -0.45858,-0.915634 0.190844,-0.07324 0.303758,0.01311 0.303758,0.232284 0,0.240898 0.06709,0.281749 0.216833,0.132016 0.460046,-0.460047 -1.434895,-2.997946 -2.251093,-3.014895 -0.0885,-0.0019 -0.349996,-0.164495 -0.581102,-0.36146 -0.80433,-0.685513 -3.073235,-0.724767 -4.179081,-0.0723 -0.664752,0.392212 -1.191114,0.576188 -1.82944,0.639434 -0.08624,0.0085 -0.156798,0.115167 -0.156798,0.236938 0,0.121772 0.117598,0.153403 0.26133,0.07029 0.143731,-0.0831 -0.07237,0.179564 -0.480239,0.583718 -1.038086,1.028649 -1.717394,3.825201 -1.032065,4.248758 0.116861,0.07222 0.162329,0.212458 0.101035,0.311631 -0.06129,0.09918 0.0564,0.304349 0.261535,0.455947 0.287808,0.212695 0.342628,0.442718 0.240082,1.007357 -0.121507,0.669053 -0.135247,0.68083 -0.160413,0.137508 -0.01514,-0.326819 -0.209515,-0.825585 -0.431952,-1.108367 -1.027796,-1.306631 -0.734835,-3.349014 0.777648,-5.421351 0.968218,-1.32661 3.402142,-2.237256 5.352158,-2.002496 0.78054,0.09397 1.481539,0.257242 1.557776,0.362832 0.164952,0.228457 0.808521,0.642824 1.401591,0.902424 1.552694,0.679652 2.125044,2.961418 1.323675,5.27704 -0.343272,0.991916 -0.416072,1.559816 -0.319006,2.488491 0.127638,1.22119 -0.166802,1.888417 -0.690509,1.564749 -0.120021,-0.07418 -0.21822,-0.04008 -0.21822,0.07576 0,0.115846 -0.235197,0.464412 -0.52266,0.77459 -0.287463,0.310178 -0.522659,0.725691 -0.522659,0.923364 0,0.590245 -0.818998,1.461113 -1.374089,1.461113 -0.737218,0 -0.678101,1.084864 0.142961,2.6235 1.217327,2.281217 1.993636,5.471403 2.592108,10.652058 0.0797,0.689904 0.252957,1.323498 0.385016,1.407979 0.295625,0.189105 -0.7547,0.159587 -1.745996,-0.04904 z M 70.599184,73.781038 c -0.259268,-0.350679 -0.552457,-0.637599 -0.651532,-0.637599 -0.199445,0 -0.0544,0.27637 0.572364,1.090615 0.583087,0.757495 0.657849,0.329692 0.07917,-0.453016 z m 3.714211,-3.038441 c -0.108869,-0.283709 -0.336176,-0.314964 -1.408393,-0.193654 -0.975218,0.110333 -1.320326,0.07709 -1.454551,-0.140084 -0.09678,-0.156606 -0.227159,-0.233554 -0.289715,-0.170997 -0.345718,0.345716 0.531196,0.873668 1.673466,1.00752 1.328848,0.155717 1.685381,0.03453 1.479193,-0.502785 z m -2.837167,17.676455 c -0.257069,-0.162682 -0.250553,-0.457635 0.04728,-2.139703 l 0.345445,-1.95099 -0.102825,1.856187 c -0.06781,1.224091 -0.0218,1.953835 0.135121,2.142909 0.268791,0.323867 0.02501,0.376409 -0.425016,0.09156 z m 13.573724,0.09055 c 0,-0.05749 0.04704,-0.104532 0.104537,-0.104532 0.05749,0 0.104532,0.04704 0.104532,0.104532 0,0.05749 -0.04703,0.104532 -0.104532,0.104532 -0.05749,0 -0.104537,-0.04703 -0.104537,-0.104532 z M 62.929944,80.983308 c 0.0042,-0.344962 0.05111,-0.460771 0.104121,-0.257355 0.053,0.203416 0.04952,0.485645 -0.0077,0.627191 -0.05727,0.141537 -0.100637,-0.02492 -0.09637,-0.369836 z m 0.586433,-0.418138 c 0,-0.05749 0.04703,-0.104532 0.104532,-0.104532 0.0575,0 0.104532,0.04704 0.104532,0.104532 0,0.05749 -0.04704,0.104532 -0.104532,0.104532 -0.05749,0 -0.104532,-0.04703 -0.104532,-0.104532 z m 2.160326,-0.243908 c 0.07666,-0.07668 0.202096,-0.07668 0.278753,0 0.07665,0.07668 0.01394,0.139376 -0.139376,0.139376 -0.153313,0 -0.216032,-0.06271 -0.139377,-0.139376 z m -2.955824,-0.592347 c 0.0042,-0.344952 0.05112,-0.46076 0.104123,-0.257345 0.053,0.203416 0.04952,0.485645 -0.0077,0.627192 -0.05727,0.141536 -0.100636,-0.02492 -0.09638,-0.369847 z m 3.985408,0.139688 c 0.317134,-0.209125 0.505291,-0.458781 0.418127,-0.5548 -0.08716,-0.09602 -0.04088,-0.106905 0.102847,-0.02422 0.398945,0.229586 0.315002,0.452268 -0.271166,0.719341 -0.787484,0.358801 -0.905893,0.292279 -0.249808,-0.140351 z m 1.200431,-0.132331 c 0,-0.05347 0.211678,-0.209968 0.470393,-0.347817 0.426537,-0.227281 0.443642,-0.21822 0.183466,0.09719 -0.267147,0.323836 -0.653859,0.472086 -0.653859,0.250641 z m -0.139377,-0.599699 c 0,-0.153315 0.123946,-0.278753 0.275434,-0.278753 0.205823,0 0.216966,0.07045 0.04409,0.278753 -0.127238,0.15331 -0.251184,0.278746 -0.275433,0.278746 -0.02425,0 -0.04409,-0.125436 -0.04409,-0.278746 z m -4.84262,-0.348441 c 0.01064,-0.543212 0.339789,-1.435436 0.347058,-0.940787 0.0034,0.22997 -0.0747,0.606285 -0.173529,0.836255 -0.110079,0.256168 -0.177294,0.296658 -0.173529,0.104532 z m 3.880927,-0.235006 c 0.141817,-0.142879 0.31051,-0.207113 0.374878,-0.142745 0.06437,0.06437 -0.05166,0.181269 -0.257844,0.259779 -0.297958,0.113455 -0.321971,0.08944 -0.117034,-0.117034 z m 4.237028,-0.705781 c 0,-0.0575 0.04703,-0.104532 0.104532,-0.104532 0.05749,0 0.104531,0.04703 0.104531,0.104532 0,0.0575 -0.04704,0.104532 -0.104531,0.104532 -0.0575,0 -0.104532,-0.04704 -0.104532,-0.104532 z m -0.513114,-0.922327 c -0.173135,-0.334802 -0.564552,-0.805197 -0.869819,-1.045319 -0.305266,-0.240125 -0.465865,-0.436587 -0.356887,-0.436587 0.108979,0 0.439446,0.258715 0.734373,0.574925 0.546062,0.585466 1.106793,1.515712 0.913638,1.515712 -0.05858,0 -0.248171,-0.273929 -0.421305,-0.608731 z m -7.222248,0.08607 c 0,-0.05749 0.04704,-0.104532 0.104532,-0.104532 0.0575,0 0.104531,0.04704 0.104531,0.104532 0,0.0575 -0.04703,0.104532 -0.104531,0.104532 -0.0575,0 -0.104532,-0.04703 -0.104532,-0.104532 z m 0.369426,-0.634266 c 0.350705,-0.645159 1.558251,-1.722296 2.203554,-1.965576 0.371975,-0.140238 0.539702,-0.144932 0.458055,-0.01281 -0.07085,0.114638 -0.278463,0.208433 -0.461365,0.208433 -0.182899,0 -0.803053,0.490729 -1.378117,1.09051 -0.575065,0.599781 -0.945023,0.905537 -0.822127,0.679457 z m 4.857169,-0.620117 c 0,-0.0575 0.04704,-0.104532 0.104532,-0.104532 0.0575,0 0.104532,0.04704 0.104532,0.104532 0,0.05749 -0.04703,0.104532 -0.104532,0.104532 -0.0575,0 -0.104532,-0.04704 -0.104532,-0.104532 z m 0.209064,-0.418127 c 0,-0.0575 0.04704,-0.104532 0.104532,-0.104532 0.0575,0 0.104532,0.04703 0.104532,0.104532 0,0.05749 -0.04703,0.104532 -0.104532,0.104532 -0.0575,0 -0.104532,-0.04704 -0.104532,-0.104532 z m 0.325647,-0.712227 c -0.06444,-0.104262 0.07112,-0.140328 0.301256,-0.08015 0.488162,0.127656 0.549869,0.269715 0.11716,0.269715 -0.165691,0 -0.353978,-0.08531 -0.418416,-0.189567 z m -2.246421,-0.580438 c 0.150918,-0.06039 0.331235,-0.05297 0.400707,0.01649 0.06947,0.06947 -0.05401,0.118882 -0.274396,0.109804 -0.243549,-0.01005 -0.293087,-0.05957 -0.126311,-0.126308 z m 0.736078,0.0034 c 0.07666,-0.07665 0.202096,-0.07665 0.278754,0 0.07665,0.07666 0.01394,0.139385 -0.139377,0.139385 -0.153312,0 -0.216031,-0.06272 -0.139377,-0.139376 z m 2.857207,-1.324062 c 0,-0.153312 0.06272,-0.216031 0.139377,-0.139376 0.07665,0.07665 0.07665,0.202095 0,0.278753 -0.07666,0.07665 -0.139377,0.01394 -0.139377,-0.139377 z m -1.199687,-0.751408 c -0.257379,-0.403542 -0.361257,-0.667763 -0.230839,-0.587161 0.166963,0.103191 0.195293,-0.03278 0.09575,-0.459557 -0.10356,-0.443987 -0.08461,-0.522227 0.07083,-0.292511 0.116719,0.172477 0.213655,0.488296 0.215415,0.701825 0.0022,0.27354 0.104578,0.349327 0.346367,0.256543 0.274603,-0.105374 0.294767,-0.07337 0.100926,0.160198 -0.133233,0.160536 -0.183515,0.444926 -0.111735,0.631976 0.207646,0.541123 0.01913,0.381823 -0.486725,-0.411313 z m 0.78156,0.228749 c 0,-0.0575 0.04704,-0.104532 0.104532,-0.104532 0.0575,0 0.104532,0.04704 0.104532,0.104532 0,0.05749 -0.04703,0.104532 -0.104532,0.104532 -0.0575,0 -0.104532,-0.04703 -0.104532,-0.104532 z M 64.561696,71.73113 c 0,-0.114985 0.141119,-0.326181 0.313596,-0.469325 0.174932,-0.145181 0.313597,-0.16782 0.313597,-0.0512 0,0.114985 -0.141119,0.326182 -0.313597,0.469325 -0.174931,0.14518 -0.313596,0.16782 -0.313596,0.0512 z m 5.226597,-0.573857 c 0,-0.0575 0.04703,-0.104532 0.104532,-0.104532 0.05749,0 0.104532,0.04703 0.104532,0.104532 0,0.0575 -0.04704,0.104532 -0.104532,0.104532 -0.0575,0 -0.104532,-0.04704 -0.104532,-0.104532 z m -2.926894,-0.627191 c -0.402448,-0.154982 -0.590606,-0.2847 -0.418128,-0.288263 0.172478,-0.0035 0.595832,0.122759 0.940787,0.280713 0.807418,0.369709 0.431864,0.375134 -0.522659,0.0075 z m 2.162782,-0.636167 c -0.06809,-0.177435 -0.07708,-0.369325 -0.01999,-0.426418 0.0571,-0.0571 0.153989,0.08808 0.215319,0.322612 0.130279,0.498184 -0.01447,0.575113 -0.195329,0.103806 z m 0.366972,-1.079059 c 0.152229,-0.253487 0.321781,-0.415884 0.376781,-0.360884 0.055,0.055 -0.06955,0.262398 -0.27678,0.460885 -0.359995,0.344807 -0.36445,0.340353 -0.1,-0.1 z m 4.001929,-0.933242 c -0.269258,-0.713345 -0.135589,-0.731891 0.649026,-0.09005 l 0.595198,0.486893 -0.510389,0.09757 c -0.4108,0.07853 -0.553988,-0.01794 -0.733835,-0.494413 z m -6.636215,0.03522 c 0.07106,-0.114985 0.176247,-0.209064 0.23374,-0.209064 0.0575,0 0.04639,0.09408 -0.02467,0.209064 -0.07106,0.114985 -0.176247,0.209063 -0.23374,0.209063 -0.05749,0 -0.04639,-0.09408 0.02467,-0.209063 z m 1.769146,-0.114047 c -0.147486,-0.17771 -0.399088,-0.272866 -0.559116,-0.211458 -0.160028,0.06141 -0.239575,0.02851 -0.176769,-0.07312 0.0628,-0.101619 -0.02639,-0.238706 -0.198206,-0.304639 -0.171817,-0.06593 -0.310955,-0.240427 -0.309194,-0.38777 0.0023,-0.191639 0.05816,-0.180996 0.1963,0.0374 0.164644,0.260293 0.261896,0.244889 0.659926,-0.104532 0.256756,-0.225398 0.39551,-0.28808 0.308341,-0.139291 -0.218369,0.372732 0.458654,1.359874 0.833901,1.21588 0.163919,-0.0629 0.298033,-0.02324 0.298033,0.08813 0,0.321661 -0.758226,0.234833 -1.053216,-0.120607 z M 66.52784,67.25734 c -0.09242,-0.149544 -0.05735,-0.184617 0.09219,-0.09219 0.132751,0.08205 0.241366,0.19066 0.241366,0.241366 0,0.174388 -0.184614,0.09183 -0.333559,-0.149173 z m 2.633262,-0.176762 c 0,-0.114985 0.09963,-0.209063 0.221402,-0.209063 0.121771,0 0.163258,0.09408 0.09219,0.209063 -0.07107,0.114986 -0.170697,0.209064 -0.221403,0.209064 -0.0507,0 -0.09219,-0.09408 -0.09219,-0.209064 z m -1.233396,-0.983545 c 0.15223,-0.253488 0.32178,-0.415884 0.376781,-0.360884 0.055,0.05501 -0.06955,0.262398 -0.276779,0.460885 -0.359995,0.344808 -0.364451,0.340353 -0.1,-0.1 z m -0.648179,-0.37537 c 0,-0.0575 0.04703,-0.104532 0.104531,-0.104532 0.0575,0 0.104532,0.04704 0.104532,0.104532 0,0.0575 -0.04703,0.104532 -0.104532,0.104532 -0.0575,0 -0.104531,-0.04704 -0.104531,-0.104532 z m -0.627192,-0.823917 c 0,-0.165691 0.08531,-0.353978 0.189567,-0.418416 0.104262,-0.06444 0.140327,0.07113 0.08015,0.301257 -0.127657,0.488163 -0.269716,0.54987 -0.269717,0.117159 z M 65.607016,64.46728 c 0,-0.0575 0.04704,-0.104532 0.104532,-0.104532 0.0575,0 0.104532,0.04704 0.104532,0.104532 0,0.0575 -0.04704,0.104532 -0.104532,0.104532 -0.0575,0 -0.104532,-0.04704 -0.104532,-0.104532 z m 0.418128,-0.418127 c 0,-0.05749 0.04703,-0.104532 0.104532,-0.104532 0.05749,0 0.104532,0.04704 0.104532,0.104532 0,0.0575 -0.04703,0.104532 -0.104532,0.104532 -0.0575,0 -0.104532,-0.04704 -0.104532,-0.104532 z m 0.627191,-0.209064 c 0,-0.0575 0.04704,-0.104532 0.104532,-0.104532 0.05749,0 0.104532,0.04704 0.104532,0.104532 0,0.0575 -0.04703,0.104532 -0.104532,0.104532 -0.0575,0 -0.104532,-0.04704 -0.104532,-0.104532 z m -0.192558,-0.644612 c 0.01005,-0.243549 0.05957,-0.293087 0.126307,-0.126311 0.06039,0.150917 0.05297,0.331235 -0.01649,0.400706 -0.06947,0.06947 -0.118882,-0.05401 -0.109805,-0.274395 z"
       id="path4" /><text
       xml:space="preserve"
       style="font-style:normal;font-variant:normal;font-weight:500;font-stretch:normal;font-size:7px;line-height:2.3;font-family:'Merriweather 120pt';-inkscape-font-specification:'Merriweather 120pt, Medium';font-variant-ligatures:normal;font-variant-caps:normal;font-variant-numeric:normal;font-variant-east-asian:normal;text-align:start;letter-spacing:0.809847px;word-spacing:0px;writing-mode:lr-tb;direction:ltr;text-anchor:start;fill:#ffffff;fill-opacity:0.504132;fill-rule:evenodd;stroke:#ffffff;stroke-width:0;stroke-linecap:round;stroke-linejoin:round;stroke-opacity:0;paint-order:fill markers stroke"
       x="32.760029"
       y="109.71578"
       id="text2"><tspan
         sodipodi:role="line"
         id="tspan2"
         x="32.760029"
         y="109.71578"
         style="font-style:normal;font-variant:normal;font-weight:500;font-stretch:normal;font-size:7px;font-family:'Merriweather 120pt';-inkscape-font-specification:'Merriweather 120pt, Medium';font-variant-ligatures:normal;font-variant-caps:normal;font-variant-numeric:normal;font-variant-east-asian:normal;stroke-width:0">Serrurerie Cordonnerie</tspan></text><text
       xml:space="preserve"
       style="font-style:normal;font-variant:normal;font-weight:500;font-stretch:normal;font-size:7px;line-height:2.3;font-family:'Merriweather 120pt';-inkscape-font-specification:'Merriweather 120pt, Medium';font-variant-ligatures:normal;font-variant-caps:normal;font-variant-numeric:normal;font-variant-east-asian:normal;text-align:start;letter-spacing:0.94px;word-spacing:0px;writing-mode:lr-tb;direction:ltr;text-anchor:start;fill:#ffffff;fill-opacity:0.504132;fill-rule:evenodd;stroke:#ffffff;stroke-width:0;stroke-linecap:round;stroke-linejoin:round;stroke-opacity:0;paint-order:fill markers stroke"
       x="48.166447"
       y="119.74777"
       id="text6"><tspan
         sodipodi:role="line"
         id="tspan6"
         x="48.166447"
         y="119.74777">Traditionnelle</tspan></text></g></svg>
