<svg xmlns="http://www.w3.org/2000/svg" viewBox="0 0 503 141.26"><defs><style>.cls-1{fill:#929191;}.cls-2{fill:#30a0ef;}</style></defs><g id="Repères"><path class="cls-1" d="M288.38,66.58a33.23,33.23,0,0,0-10.73-4.78A51.18,51.18,0,0,0,265,60.26a44.79,44.79,0,0,0-16.62,2.85,29.44,29.44,0,0,0-11.69,8.12,27.72,27.72,0,0,0-6.06,12.46l20.24,1.64a12.16,12.16,0,0,1,4.62-6.5c2.33-1.73,5.47-2.59,9.4-2.59,3.74,0,6.62.89,8.66,2.67a9.49,9.49,0,0,1,3.06,7.55v.31a4.3,4.3,0,0,1-1.9,3.8,15.51,15.51,0,0,1-6.12,1.93q-4.22.63-11.09,1.36a70.07,70.07,0,0,0-11.18,2,31.57,31.57,0,0,0-9.47,4.11,19.46,19.46,0,0,0-6.58,7.19,23,23,0,0,0-2.41,11q0,7.81,3.41,13a21.38,21.38,0,0,0,9.33,7.86,32.63,32.63,0,0,0,13.46,2.64,31,31,0,0,0,10.32-1.57,22.73,22.73,0,0,0,7.65-4.36,21.89,21.89,0,0,0,5.09-6.5h.62v10.94h20.75V87a25.22,25.22,0,0,0-2.72-12.09A23.35,23.35,0,0,0,288.38,66.58ZM276.8,112a13.47,13.47,0,0,1-2.11,7.45,14.88,14.88,0,0,1-5.8,5.21,18.15,18.15,0,0,1-8.53,1.93,13.87,13.87,0,0,1-8.29-2.34,7.84,7.84,0,0,1-3.27-6.8,8.21,8.21,0,0,1,1.6-5.17,10.88,10.88,0,0,1,4.47-3.31,27.19,27.19,0,0,1,6.73-1.8l4-.59c1.47-.22,2.95-.48,4.42-.77a40.72,40.72,0,0,0,4-1,11.53,11.53,0,0,0,2.8-1.2Z" transform="translate(0 -0.47)"/><path class="cls-1" d="M332.88,80.06a14.66,14.66,0,0,1,8.86-2.74,13.37,13.37,0,0,1,9.74,3.62,16.12,16.12,0,0,1,4.59,9.53h20.65a31,31,0,0,0-5-15.93A30.22,30.22,0,0,0,359.46,64a41.09,41.09,0,0,0-18.08-3.75q-12,0-20.65,5.16a34.75,34.75,0,0,0-13.38,14.34,46.09,46.09,0,0,0-4.7,21.29,46.26,46.26,0,0,0,4.65,21.16,34.36,34.36,0,0,0,13.35,14.36q8.72,5.16,20.83,5.16a40.34,40.34,0,0,0,18.24-3.85,29.93,29.93,0,0,0,12.1-10.71,32.28,32.28,0,0,0,4.9-15.9H356.07a17.13,17.13,0,0,1-2.59,7.12,13.29,13.29,0,0,1-5,4.49,15.63,15.63,0,0,1-15.65-1.23,17.71,17.71,0,0,1-5.88-8.07,35.28,35.28,0,0,1-2.08-12.84A33.94,33.94,0,0,1,327,88.05,17.76,17.76,0,0,1,332.88,80.06Z" transform="translate(0 -0.47)"/><path class="cls-1" d="M421.17,123.37a17,17,0,0,1-3.09.28,10.25,10.25,0,0,1-3.87-.67,5,5,0,0,1-2.6-2.33,9.93,9.93,0,0,1-.92-4.71V77.73h14.84V61.29H410.69V42.39H388.8v18.9H378V77.73H388.8v41.09q0,7.75,3.24,12.84a19.36,19.36,0,0,0,9.22,7.5,33,33,0,0,0,13.84,2.11,38.62,38.62,0,0,0,7.25-.85q3-.69,4.62-1.2l-3.44-16.29Z" transform="translate(0 -0.47)"/><path class="cls-1" d="M481.12,106.6a16.86,16.86,0,0,1-2.08,8.88,14,14,0,0,1-5.58,5.42,15.5,15.5,0,0,1-7.39,1.83,12.79,12.79,0,0,1-9.92-4.06q-3.69-4.07-3.75-11V61.29H430.52v50.24a35,35,0,0,0,3.42,15.87,24.44,24.44,0,0,0,9.37,10.22,26.58,26.58,0,0,0,13.92,3.6A26.23,26.23,0,0,0,472.31,137a23.41,23.41,0,0,0,8.86-11.15H482v14.33h21V61.29H481.12Z" transform="translate(0 -0.47)"/><path class="cls-2" d="M9.4,139.8,64.83,30v-.87H0V2.35H99.2v27L43.56,139.8Z" transform="translate(0 -0.47)"/><path class="cls-2" d="M154.55,141.68q-16.05,0-28.63-5.13t-19.73-14a31.64,31.64,0,0,1-3-35.61,35.57,35.57,0,0,1,11.1-11.85,38.23,38.23,0,0,1,15.68-6.07V68a31,31,0,0,1-18.56-10.54,29.57,29.57,0,0,1-7.22-19.8,30.24,30.24,0,0,1,6.55-19.13A43.87,43.87,0,0,1,128.61,5.3,65.82,65.82,0,0,1,154.55.47,65.89,65.89,0,0,1,180.49,5.3a44,44,0,0,1,17.92,13.22A30.29,30.29,0,0,1,205,37.65a29.36,29.36,0,0,1-7.28,19.83A31.29,31.29,0,0,1,179.18,68v1.07a38.11,38.11,0,0,1,15.6,6.07A35.9,35.9,0,0,1,205.92,87a31.5,31.5,0,0,1-3,35.61q-7.19,8.82-19.7,14T154.55,141.68Zm0-23.56a23.78,23.78,0,0,0,10.74-2.31,18,18,0,0,0,7.28-6.48,18.11,18.11,0,0,0,0-18.93,18.67,18.67,0,0,0-7.35-6.54,24.88,24.88,0,0,0-21.24,0,18.62,18.62,0,0,0-7.38,6.54,17.2,17.2,0,0,0-2.68,9.53,17,17,0,0,0,2.65,9.37,18.12,18.12,0,0,0,7.31,6.47A23.45,23.45,0,0,0,154.55,118.12Zm0-60.07a19.58,19.58,0,0,0,9.29-2.14,16.2,16.2,0,0,0,6.38-6,16.4,16.4,0,0,0,2.31-8.66,15.72,15.72,0,0,0-2.31-8.52,16.32,16.32,0,0,0-6.34-5.81,19.93,19.93,0,0,0-9.33-2.11,20.16,20.16,0,0,0-9.33,2.11,15.5,15.5,0,0,0-8.66,14.33,16.07,16.07,0,0,0,8.72,14.6A19.34,19.34,0,0,0,154.55,58.05Z" transform="translate(0 -0.47)"/></g></svg>