<?xml version="1.0" encoding="UTF-8"?>
<svg width="173px" height="84px" viewBox="0 0 173 84" version="1.1" xmlns="http://www.w3.org/2000/svg" xmlns:xlink="http://www.w3.org/1999/xlink">
    <title>935934B7-CBD4-40BC-B545-632AF9E386BA@1x</title>
    <defs>
        <polygon id="path-1" points="0 -5.63071602e-15 17.8597898 -5.63071602e-15 17.8597898 20.588014 0 20.588014"></polygon>
        <polygon id="path-3" points="0 0 17.3163191 0 17.3163191 17.3885669 0 17.3885669"></polygon>
    </defs>
    <g id="2022" stroke="none" stroke-width="1" fill="none" fill-rule="evenodd">
        <g id="home-2022" transform="translate(-315.000000, -36.000000)">
            <g id="header/1280" transform="translate(270.000000, -20.000000)">
                <g id="Group-51" transform="translate(45.000000, 56.000000)">
                    <path d="M57.8038295,9.57162053 C52.6699866,9.57162053 49.9679639,13.1835528 49.9679639,19.5044343 C49.9679639,25.7350175 52.129582,29.0760548 57.8038295,29.0760548 C61.3164589,29.0760548 64.9191558,28.1730718 64.9191558,28.1730718 L64.8290884,25.1029293 C64.8290884,25.1029293 60.7760544,25.4641225 58.1640992,25.4641225 C55.1918743,25.4641225 54.1110653,23.5678581 54.1110653,21.0395055 L65.2794255,21.0395055 L65.5496277,18.1499597 C65.4595603,12.641763 62.9376725,9.57162053 57.8038295,9.57162053 L57.8038295,9.57162053 Z M54.0209979,17.8790648 C54.0209979,14.718624 55.1918743,13.0029562 57.8038295,13.0029562 C60.4157847,13.0029562 61.4965938,14.6283257 61.4965938,17.8790648 L54.0209979,17.8790648 Z" id="Fill-1" fill="#72C91F"></path>
                    <polygon id="Fill-3" fill="#72C91F" points="63.1178074 3.8828272 61.766796 0 52.760054 3.52163397 54.0209979 6.95296963"></polygon>
                    <path d="M77.168325,17.3372749 C74.1060327,16.7954851 73.3854933,16.4342919 73.3854933,15.2604139 C73.3854933,13.7253426 74.4663024,13.0932545 76.4477856,13.0932545 C78.4292689,13.0932545 82.9326399,13.7253426 82.9326399,13.7253426 L83.0227073,10.3843053 C83.0227073,10.3843053 78.879606,9.57162053 76.1775834,9.57162053 C72.7550214,9.57162053 69.3324594,11.1969901 69.3324594,15.3507122 C69.3324594,19.1432411 71.7642797,20.1365224 75.9974485,20.9492072 C78.9696734,21.5812954 79.5100779,21.8521903 79.5100779,23.1163666 C79.5100779,24.7417361 78.5193363,25.3738242 75.9974485,25.3738242 C74.1060327,25.3738242 69.6927291,24.7417361 69.6927291,24.7417361 L69.5125942,28.0827734 C69.5125942,28.0827734 73.745763,28.8954582 76.3577182,28.8954582 C80.590887,28.8954582 83.5631119,27.360387 83.5631119,22.93577 C83.5631119,19.414136 81.8518309,18.1499597 77.168325,17.3372749" id="Fill-5" fill="#72C91F"></path>
                    <path d="M94.8215395,9.57162053 C89.6876965,9.57162053 86.9856739,13.1835528 86.9856739,19.5044343 C86.9856739,25.7350175 89.1472919,29.0760548 94.8215395,29.0760548 C98.3341689,29.0760548 101.936866,28.1730718 101.936866,28.1730718 L101.846798,25.1029293 C101.846798,25.1029293 97.7937643,25.4641225 95.1818091,25.4641225 C92.2095843,25.4641225 91.1287752,23.5678581 91.1287752,21.0395055 L102.297135,21.0395055 L102.567338,18.1499597 C102.47727,12.641763 100.04545,9.57162053 94.8215395,9.57162053 L94.8215395,9.57162053 Z M91.0387078,17.8790648 C91.0387078,14.718624 92.2095843,13.0029562 94.8215395,13.0029562 C97.4334947,13.0029562 98.5143037,14.6283257 98.5143037,17.8790648 L91.0387078,17.8790648 Z" id="Fill-7" fill="#72C91F"></path>
                    <path d="M120.31062,23.6581564 L120.31062,15.8022037 C120.31062,11.2872884 118.149001,9.48132223 114.186035,9.48132223 C111.393945,9.48132223 106.620372,10.2037087 106.620372,10.2037087 L106.800506,13.544746 C106.800506,13.544746 110.673405,13.1835528 114.0059,13.1835528 C115.537046,13.1835528 116.257586,13.9962376 116.257586,15.6216071 L116.257586,16.8857834 L111.754215,17.2469766 C108.06145,17.5178715 105.719697,19.1432411 105.719697,22.93577 C105.719697,26.5477022 108.151518,28.8954582 111.393945,28.8954582 C114.276102,28.8954582 116.978125,27.5409836 116.978125,27.5409836 C118.058934,28.4439667 119.319878,28.8954582 121.931833,28.8954582 L122.202035,25.4641225 C120.941091,25.2835259 120.400687,25.012631 120.31062,23.6581564 L120.31062,23.6581564 Z M116.167518,24.8320344 C116.167518,24.8320344 113.915833,25.6447192 111.844282,25.6447192 C110.583338,25.6447192 109.682664,24.5611395 109.682664,23.0260683 C109.682664,21.490997 110.493271,20.4977157 112.114484,20.4074174 L116.167518,20.1365224 L116.167518,24.8320344 Z" id="Fill-9" fill="#72C91F"></path>
                    <path d="M136.792958,9.93281376 L136.792958,24.3805429 C136.792958,24.3805429 134.451205,25.4641225 132.829991,25.4641225 C130.308103,25.4641225 129.767699,23.7484547 129.767699,19.6850309 L129.767699,9.93281376 L125.714665,9.93281376 L125.714665,19.6850309 C125.714665,26.186509 127.245811,28.9857565 132.019384,28.9857565 C134.000867,28.9857565 136.792958,27.6312819 136.792958,27.6312819 L136.792958,28.6245633 L140.936059,28.6245633 L140.936059,9.93281376 L136.792958,9.93281376 Z" id="Fill-11" fill="#72C91F"></path>
                    <path d="M13.580726,18.6014512 L28.9822549,18.6014512 L28.9822549,28.6245633 L32.7650866,28.6245633 L32.7650866,18.6014512 L38.4393341,18.6014512 L38.7095363,18.6014512 L42.7625703,28.6245633 L46.9056716,28.6245633 L42.492368,17.6984682 C45.1943906,16.2536952 46.8156042,13.4544477 46.8156042,9.84251545 C46.8156042,4.69551196 43.3930422,1.2641763 38.3492667,1.2641763 L32.6750192,1.2641763 L29.0723223,1.2641763 L29.0723223,4.87610857 L29.0723223,14.9895189 L13.580726,14.9895189 C10.0680966,14.9895189 7.18593909,17.8790648 7.18593909,21.4006987 L7.18593909,49.3931739 L7.18593909,50.1155603 L7.18593909,70.3423811 C7.18593909,75.5796829 11.4191079,79.9140016 16.7330857,79.9140016 L25.2894907,79.9140016 C25.6497603,80.9975813 26.2802323,82.081161 27.3610413,82.8938457 C29.0723223,84.158022 31.4140753,84.3386187 33.3054911,83.4356356 C37.0883228,81.5393711 37.6287273,76.482666 34.3863002,73.7737167 C32.7650866,72.4192421 30.4233336,72.1483472 28.5319178,72.961032 C27.0007717,73.6834184 25.9199626,74.8572964 25.4696255,76.3020693 L16.7330857,76.3020693 C13.4906585,76.3020693 10.7886359,73.6834184 10.7886359,70.3423811 L10.7886359,50.1155603 L10.7886359,49.3931739 L10.7886359,21.4006987 C10.7886359,19.7753292 12.0495798,18.6014512 13.580726,18.6014512 M39.1598734,14.8992206 L32.6750192,14.8992206 L32.6750192,4.78581027 L38.2591992,4.78581027 C41.2314241,4.78581027 42.8526377,6.5917764 42.8526377,9.75221715 C42.8526377,12.4611664 41.7718286,14.5380274 39.1598734,14.8992206" id="Fill-13" fill="#72C91F"></path>
                    <polygon id="Fill-15" fill="#E51968" points="33.1253563 34.7648482 37.5386599 34.7648482 30.6935359 62.0349368 26.1901649 62.0349368"></polygon>
                    <path d="M36.3677834,62.0349368 L41.3214915,42.3499059 L45.6447277,42.3499059 L45.3745255,43.3431873 C45.3745255,43.3431873 48.6169526,41.8984144 50.8686381,41.8984144 C56.0925485,41.8984144 56.6329531,45.4200484 55.1018069,51.7409299 L52.3997843,62.0349368 L48.0765481,62.0349368 L50.6885033,51.8312282 C51.5891775,48.3095942 51.6792449,45.8715399 48.9772223,45.8715399 C47.1758739,45.8715399 44.4738513,46.8648213 44.4738513,46.8648213 L40.6009522,62.0349368 L36.3677834,62.0349368 Z" id="Fill-17" fill="#E51968"></path>
                    <path d="M62.5774028,42.3499059 L66.900639,42.3499059 L61.9469309,62.0349368 L57.6236947,62.0349368 L62.5774028,42.3499059 Z M64.4688187,34.6745499 L68.7920549,34.6745499 L67.6211784,39.1894652 L63.2979422,39.1894652 L64.4688187,34.6745499 Z" id="Fill-19" fill="#E51968"></path>
                    <path d="M76.8981227,46.1424348 L74.8265721,54.5401774 C74.1060327,57.3394249 74.3762349,58.6036012 75.9974485,58.6036012 C77.0782576,58.6036012 78.9696734,58.5133029 78.9696734,58.5133029 L78.249134,62.0349368 C78.249134,62.0349368 75.7272463,62.5767267 74.3762349,62.5767267 C70.2331336,62.5767267 69.0622571,60.4998656 70.4132684,55.1722655 L72.664954,46.2327331 L70.323201,46.2327331 L71.2238752,42.5305026 L73.5656282,42.5305026 L75.0067069,36.7514109 L79.3299431,36.7514109 L77.8888644,42.5305026 L83.1127748,42.5305026 L82.2121006,46.2327331 L76.8981227,46.2327331 L76.8981227,46.1424348 Z" id="Fill-21" fill="#E51968"></path>
                    <path d="M87.0757413,42.3499059 L91.3989775,42.3499059 L86.3552019,62.0349368 L82.0319657,62.0349368 L87.0757413,42.3499059 Z M88.9671571,34.6745499 L93.2903933,34.6745499 L92.1195168,39.1894652 L87.7962806,39.1894652 L88.9671571,34.6745499 Z" id="Fill-23" fill="#E51968"></path>
                    <path d="M107.430978,56.797635 C107.160776,58.1521096 107.701181,58.5133029 108.78199,58.7841978 L107.611113,62.3961301 C104.909091,62.3961301 103.738214,61.8543402 102.747472,60.9513572 C102.747472,60.9513572 99.5951128,62.3961301 96.5328204,62.3961301 C93.2003259,62.3961301 91.2188426,59.9580758 92.2095843,56.1655469 C93.2003259,52.1924214 96.0824833,50.4767536 100.04545,50.2058586 L104.909091,49.8446654 L105.26936,48.4901908 C105.719697,46.774523 105.089225,45.8715399 103.558079,45.8715399 C100.04545,45.8715399 95.9023485,46.2327331 95.9023485,46.2327331 L96.6228879,42.7110992 C96.6228879,42.7110992 101.846798,41.8984144 104.819023,41.8984144 C108.962125,41.8984144 110.85354,43.7043805 109.592596,48.4901908 L107.430978,56.797635 Z M99.7752476,53.2760011 C97.9738992,53.3662994 96.8930901,54.5401774 96.5328204,56.0752486 C96.0824833,57.7006181 96.7129553,58.8744961 98.0639666,58.8744961 C100.225585,58.8744961 102.83754,58.0618113 102.83754,58.0618113 L104.098484,53.0954045 L99.7752476,53.2760011 Z" id="Fill-25" fill="#E51968"></path>
                    <path d="M120.400687,46.1424348 L118.329136,54.5401774 C117.608597,57.3394249 117.878799,58.6036012 119.500013,58.6036012 C120.580822,58.6036012 122.472238,58.5133029 122.472238,58.5133029 L121.751698,62.0349368 C121.751698,62.0349368 119.22981,62.5767267 117.878799,62.5767267 C113.735698,62.5767267 112.564821,60.4998656 113.915833,55.1722655 L116.167518,46.2327331 L113.825765,46.2327331 L114.726439,42.5305026 L117.068192,42.5305026 L118.509271,36.7514109 L122.832507,36.7514109 L121.391429,42.5305026 L126.615339,42.5305026 L125.714665,46.2327331 L120.400687,46.2327331 L120.400687,46.1424348 Z" id="Fill-27" fill="#E51968"></path>
                    <path d="M130.578305,42.3499059 L134.901542,42.3499059 L129.947834,62.0349368 L125.624597,62.0349368 L130.578305,42.3499059 Z M132.559789,34.6745499 L136.883025,34.6745499 L135.712148,39.1894652 L131.388912,39.1894652 L132.559789,34.6745499 Z" id="Fill-29" fill="#E51968"></path>
                    <polygon id="Fill-31" fill="#E51968" points="142.917542 42.3499059 142.737407 58.4230046 143.638081 58.4230046 151.564015 42.3499059 155.887251 42.3499059 145.979834 62.0349368 138.594306 62.0349368 138.504239 42.3499059"></polygon>
                    <g id="Group-35" transform="translate(154.894927, 41.898414)">
                        <mask id="mask-2" fill="white">
                            <use xlink:href="#path-1"></use>
                        </mask>
                        <g id="Clip-34"></g>
                        <path d="M14.7726389,16.4342919 L14.0520996,19.6850309 C14.0520996,19.6850309 10.0891331,20.588014 6.3963688,20.588014 C0.361851613,20.588014 -0.989159698,17.06638 0.632053875,10.4746036 C2.34333487,3.79252889 6.12616654,-5.63071602e-15 11.5302118,-5.63071602e-15 C17.0243244,-5.63071602e-15 18.8256729,3.25073905 17.3845941,8.93953238 L16.3037851,12.0096748 L4.50495297,12.0096748 C3.87448102,14.718624 4.50495297,16.7051868 7.56724527,16.7051868 C10.4494027,16.7954851 14.7726389,16.4342919 14.7726389,16.4342919 L14.7726389,16.4342919 Z M13.1514254,8.75893577 C14.0520996,5.32760011 13.4216276,3.61193228 10.6295376,3.61193228 C7.83744753,3.61193228 6.21623396,5.41789841 5.40562717,8.75893577 L13.1514254,8.75893577 Z" id="Fill-33" fill="#E51968" mask="url(#mask-2)"></path>
                    </g>
                    <g id="Group-38" transform="translate(0.000000, 43.272392)">
                        <mask id="mask-4" fill="white">
                            <use xlink:href="#path-3"></use>
                        </mask>
                        <g id="Clip-37"></g>
                        <path d="M14.0310631,15.5118056 C10.2482314,18.4916497 4.84418616,17.8595616 1.87196127,14.0670327 C-1.10026361,10.2745038 -0.469791666,4.8566054 3.31304,1.87676127 C7.09587167,-1.10308286 12.4999169,-0.470994709 15.4721418,3.32153418 C18.4443667,7.11406307 17.7238273,12.5319615 14.0310631,15.5118056" id="Fill-36" fill="#E51968" mask="url(#mask-4)"></path>
                    </g>
                    <polygon id="Fill-39" fill="#E51968" points="40.5108848 73.5931201 46.0049974 73.5931201 46.0049974 74.9475947 41.9519635 74.9475947 41.9519635 77.9274389 45.1943906 77.9274389 45.1943906 79.2819135 41.9519635 79.2819135 41.9519635 82.5326525 40.5108848 82.5326525"></polygon>
                    <path d="M50.6885033,79.3722118 L49.0672897,79.3722118 L49.0672897,82.5326525 L47.626211,82.5326525 L47.626211,73.5931201 L50.8686381,73.5931201 C52.8501214,73.5931201 53.840863,74.4961032 53.840863,76.482666 C53.840863,77.8371406 53.3905259,78.6498253 52.3997843,79.1013169 L53.840863,82.6229508 L52.2196495,82.6229508 L50.9587056,79.4625101 L50.6885033,79.3722118 Z M50.7785707,74.9475947 L48.9772223,74.9475947 L48.9772223,78.1080355 L50.7785707,78.1080355 C51.7693123,78.1080355 52.3097169,77.385649 52.3097169,76.482666 C52.3097169,75.4893846 51.7693123,74.9475947 50.7785707,74.9475947 L50.7785707,74.9475947 Z" id="Fill-41" fill="#E51968"></path>
                    <path d="M57.0832902,73.5931201 L59.8753802,73.5931201 L62.0369983,82.5326525 L60.5959196,82.5326525 L60.0555151,80.6363881 L56.9031553,80.6363881 L56.4528182,82.5326525 L54.8316047,82.5326525 L57.0832902,73.5931201 Z M57.0832902,79.3722118 L59.6952454,79.3722118 L58.6144363,74.8572964 L58.1640992,74.8572964 L57.0832902,79.3722118 Z" id="Fill-43" fill="#E51968"></path>
                    <polygon id="Fill-45" fill="#E51968" points="63.3880096 73.5931201 65.9098974 73.5931201 68.61192 81.0878796 68.7920549 81.0878796 68.7920549 73.5931201 70.2331336 73.5931201 70.2331336 82.5326525 67.8913807 82.5326525 65.0092232 75.037893 64.8290884 75.037893 64.8290884 82.5326525 63.3880096 82.5326525"></polygon>
                    <path d="M77.7087295,82.4423542 C77.7087295,82.4423542 76.1775834,82.7132491 75.2769092,82.7132491 C72.664954,82.7132491 72.034482,81.0878796 72.034482,78.1080355 C72.034482,74.9475947 72.8450888,73.4125235 75.2769092,73.4125235 C76.2676508,73.4125235 77.7087295,73.6834184 77.7087295,73.6834184 L77.6186621,74.9475947 C77.6186621,74.9475947 76.0875159,74.7669981 75.3669766,74.7669981 C73.8358304,74.7669981 73.3854933,75.6699812 73.3854933,78.0177372 C73.3854933,80.2751948 73.745763,81.2684762 75.3669766,81.2684762 C75.9974485,81.2684762 77.5285947,81.0878796 77.5285947,81.0878796 L77.7087295,82.4423542 Z" id="Fill-47" fill="#E51968"></path>
                    <polygon id="Fill-49" fill="#E51968" points="79.3299431 73.5931201 84.7339883 73.5931201 84.7339883 74.9475947 80.7710218 74.9475947 80.7710218 77.4759473 83.9233815 77.4759473 83.9233815 78.7401236 80.7710218 78.7401236 80.7710218 81.1781779 84.7339883 81.1781779 84.7339883 82.5326525 79.3299431 82.5326525"></polygon>
                </g>
            </g>
        </g>
    </g>
</svg>